<svg width="12" height="12" viewBox="0 0 12 12" fill="none" xmlns="http://www.w3.org/2000/svg">
<path fill-rule="evenodd" clip-rule="evenodd" d="M7.37857 1.31073C7.81764 0.871665 8.41314 0.625 9.03407 0.625C9.655 0.625 10.2505 0.871665 10.6896 1.31073C11.1286 1.7498 11.3753 2.3453 11.3753 2.96623C11.3753 3.58716 11.1286 4.18266 10.6896 4.62173L5.94657 9.36473C5.67557 9.63573 5.51657 9.79473 5.33857 9.93323C5.12924 10.0972 4.90424 10.2364 4.66357 10.3507C4.46057 10.4472 4.24657 10.5187 3.88357 10.6397L2.21757 11.1947L1.81657 11.3287C1.65708 11.382 1.48592 11.3897 1.32227 11.3511C1.15862 11.3125 1.00896 11.2291 0.890068 11.1102C0.771177 10.9913 0.687757 10.8417 0.649163 10.678C0.61057 10.5144 0.618328 10.3432 0.67157 10.1837L1.36057 8.11723C1.48157 7.75373 1.55307 7.53973 1.64957 7.33623C1.76424 7.09623 1.9034 6.87123 2.06707 6.66123C2.20507 6.48423 2.36457 6.32473 2.63557 6.05373L7.37857 1.31073ZM2.20007 10.4107L3.62057 9.93673C4.01607 9.80473 4.18407 9.74823 4.34057 9.67373C4.53124 9.5824 4.71007 9.4719 4.87707 9.34223C5.01357 9.23523 5.13957 9.11073 5.43457 8.81573L9.21957 5.03073C8.70062 4.84684 8.22955 4.54886 7.84107 4.15873C7.45131 3.77014 7.15367 3.29908 6.97007 2.78023L3.18507 6.56523C2.89007 6.85973 2.76507 6.98523 2.65857 7.12223C2.52857 7.2889 2.41807 7.46773 2.32707 7.65873C2.25257 7.81523 2.19607 7.98323 2.06407 8.37873L1.59007 9.80023L2.20007 10.4107ZM7.57757 2.17173C7.59507 2.25923 7.62357 2.37823 7.67207 2.51673C7.81834 2.93525 8.05769 3.31513 8.37207 3.62773C8.68453 3.94205 9.06423 4.18139 9.48257 4.32773C9.62157 4.37623 9.74057 4.40473 9.82807 4.42223L10.1591 4.09123C10.4557 3.7925 10.6219 3.38838 10.6211 2.96738C10.6204 2.54639 10.4528 2.14285 10.1551 1.84516C9.85745 1.54747 9.45391 1.37991 9.03292 1.37917C8.61192 1.37843 8.2078 1.54459 7.90907 1.84123L7.57757 2.17173Z" fill="#0087FA"/>
</svg>
