<svg width="14" height="14" viewBox="0 0 14 14" fill="none" xmlns="http://www.w3.org/2000/svg">
<path d="M3.58565 10.4143H2.23687C1.89969 10.3862 1.58538 10.2325 1.35627 9.98346C1.12716 9.73453 1 9.40853 1 9.07019C1 8.73184 1.12716 8.40585 1.35627 8.15687C1.58538 7.9079 1.89969 7.75413 2.23687 7.72605H4.37632L5.75301 6.34936L1.97641 4.02387C1.68567 3.84414 1.47401 3.56072 1.38422 3.23091C1.29443 2.9011 1.33321 2.54951 1.49271 2.24719C1.56313 2.07418 1.66824 1.91742 1.80157 1.78661C1.9349 1.65578 2.09362 1.55367 2.26795 1.48655C2.44227 1.41944 2.62848 1.38875 2.81512 1.39639C3.00176 1.40402 3.18485 1.44981 3.3531 1.53094L8.28315 3.80992L10.6645 1.40071C10.921 1.14414 11.269 1 11.6319 1C11.9947 1 12.3427 1.14414 12.5993 1.40071C12.8558 1.65728 13 2.00527 13 2.36812C13 2.73096 12.8558 3.07895 12.5993 3.33552L10.1901 5.71683L12.469 10.6934C12.544 10.8591 12.5849 11.0382 12.5893 11.2201C12.5938 11.4018 12.5617 11.5828 12.4948 11.752C12.428 11.9211 12.3279 12.0751 12.2005 12.2049C12.073 12.3346 11.9208 12.4375 11.7528 12.5073C11.4505 12.6668 11.0989 12.7055 10.7691 12.6157C10.4393 12.526 10.1558 12.3143 9.97612 12.0236L7.65061 8.24696L6.27392 9.62366V11.7631C6.24585 12.1003 6.09208 12.4146 5.8431 12.6437C5.59413 12.8728 5.26814 13 4.92979 13C4.59145 13 4.26545 12.8728 4.01648 12.6437C3.76751 12.4146 3.61373 12.1003 3.58565 11.7631V10.4143Z" stroke="#676767" stroke-linecap="round" stroke-linejoin="round"/>
</svg>
