<svg width="13" height="13" viewBox="0 0 13 13" fill="none" xmlns="http://www.w3.org/2000/svg">
<path d="M12 6.44772C12.0008 6.33031 11.9772 6.21401 11.9305 6.10624C11.8839 5.99847 11.8154 5.90158 11.7292 5.82174L6.50002 1L1.27079 5.82174C1.18467 5.90158 1.11612 5.99847 1.06951 6.10624C1.02289 6.21401 0.999225 6.33031 1.00002 6.44772V11.151C1.00002 11.3754 1.08917 11.5906 1.24785 11.7492C1.40654 11.9078 1.62176 11.997 1.84617 11.997H11.1538C11.3782 11.997 11.5935 11.9078 11.7522 11.7492C11.9109 11.5906 12 11.3754 12 11.151V6.44772Z" stroke="#676767" stroke-linecap="round" stroke-linejoin="round"/>
<path d="M6.5 11.9999V8.61621" stroke="#676767" stroke-linecap="round" stroke-linejoin="round"/>
</svg>
