<svg width="112" height="18" viewBox="0 0 112 18" fill="none" xmlns="http://www.w3.org/2000/svg">
<path d="M83.3515 0.923828V11.748C83.3515 15.095 86.0639 17.8053 89.4067 17.8053C92.7494 17.8053 95.4619 15.0929 95.4619 11.7501C95.4619 8.40738 92.7494 5.69496 89.4067 5.69496C88.2627 5.69496 87.1951 6.0112 86.2825 6.56302V0.923828H83.3494H83.3515ZM89.4703 15.4601C87.4307 15.4601 85.7774 13.8067 85.7774 11.7671C85.7774 9.72751 87.4307 8.07416 89.4703 8.07416C91.51 8.07416 93.1633 9.72751 93.1633 11.7671C93.1633 13.8067 91.51 15.4601 89.4703 15.4601Z" fill="#FFC000"/>
<path d="M72.3444 5.56152C71.9857 5.91596 71.5443 6.09212 71.02 6.09212C70.4958 6.09212 70.0543 5.91596 69.6957 5.56152C69.337 5.20708 69.1587 4.77199 69.1587 4.25413C69.1587 3.73626 69.337 3.30117 69.6957 2.94674C70.0543 2.5923 70.4937 2.41614 71.02 2.41614C71.5464 2.41614 71.9857 2.59442 72.3444 2.94674C72.7031 3.30117 72.8814 3.73626 72.8814 4.25413C72.8814 4.77199 72.7031 5.20708 72.3444 5.56152Z" fill="#0080FF"/>
<path d="M69.5499 17.5274V6.69043C69.7685 6.82202 70.297 7.09793 71.0229 7.09793C71.7487 7.09793 72.2772 6.82202 72.4958 6.69043V17.5252H69.5499V17.5274Z" fill="#0080FF"/>
<path d="M57.0751 5.96842H54.8508V7.40528C53.883 6.14882 52.4122 5.66492 50.8331 5.66492C49.1097 5.66492 47.675 6.24645 46.5246 7.40952C45.3764 8.57259 44.8013 10.0158 44.8013 11.7392C44.8013 13.4626 45.3743 14.9058 46.5246 16.0668C47.6729 17.2298 49.1097 17.8114 50.8331 17.8114C50.8777 17.8114 50.9201 17.8114 50.9647 17.8092C51.005 17.8092 51.0453 17.8114 51.0878 17.8114C51.7882 17.8114 52.4355 17.6883 53.0298 17.4463C53.6962 17.2065 54.3945 16.6865 54.8529 15.9776V17.5291H57.7967V6.68791C57.7967 6.29102 57.4741 5.96842 57.0772 5.96842H57.0751ZM53.5604 14.3901C52.8579 15.0968 51.9771 15.4513 50.9201 15.4513C49.8632 15.4513 48.9994 15.0968 48.299 14.3901C47.6007 13.6833 47.2505 12.8046 47.2505 11.7562C47.2505 10.7077 47.5986 9.83117 48.299 9.12229C48.9972 8.41554 49.8717 8.0611 50.9201 8.0611C51.9686 8.0611 52.8579 8.41554 53.5604 9.12229C54.2629 9.82905 54.6152 10.7077 54.6152 11.7562C54.6152 12.8046 54.265 13.6812 53.5604 14.3901Z" fill="#0080FF"/>
<path d="M26.8731 17.8065C25.241 17.8065 23.9357 17.3608 22.953 16.4715C21.9704 15.5822 21.4801 14.3979 21.4801 12.9229V6.68304C21.4801 6.28403 21.8027 5.96143 22.2017 5.96143H24.426V12.5132C24.426 13.2518 24.6488 13.8419 25.0967 14.2854C25.5424 14.729 26.1345 14.9498 26.8731 14.9498C27.6117 14.9498 28.2038 14.729 28.6495 14.2854C29.0952 13.8419 29.3202 13.2518 29.3202 12.5132V5.96355H32.2661V12.9229C32.2661 14.3916 31.7737 15.5737 30.7868 16.4673C29.802 17.3608 28.4967 17.8065 26.871 17.8065H26.8731Z" fill="#0080FF"/>
<path d="M38.4568 17.8066C36.5806 17.8066 34.9569 17.2166 33.5837 16.0344L35.0121 14.086C35.9948 14.9435 37.1196 15.3701 38.3888 15.3701C38.9937 15.3701 39.4861 15.2746 39.8681 15.0814C40.248 14.8904 40.4391 14.623 40.4391 14.2834C40.4391 14.0988 40.386 13.9375 40.2778 13.7953C40.1695 13.6552 39.9997 13.5321 39.762 13.4302C39.5264 13.3262 39.2993 13.2413 39.0807 13.1755C38.8621 13.1097 38.5586 13.0312 38.1681 12.9421C37.9028 12.8827 37.6906 12.836 37.5356 12.7978C37.3807 12.7617 37.1685 12.7044 36.8989 12.6258C36.6294 12.5473 36.4108 12.4773 36.2452 12.4094C36.0797 12.3436 35.8823 12.2523 35.6531 12.1377C35.4239 12.0231 35.2371 11.9063 35.0928 11.7896C34.9484 11.6708 34.7977 11.5286 34.6386 11.3588C34.4794 11.189 34.3542 11.0086 34.2608 10.8154C34.1674 10.6244 34.0931 10.4016 34.0337 10.1511C33.9743 9.90069 33.9445 9.63115 33.9445 9.3425C33.9445 8.55297 34.1632 7.87593 34.5982 7.31562C35.0333 6.75531 35.6 6.34356 36.2983 6.08039C36.9965 5.81933 37.784 5.68774 38.6626 5.68774C40.3669 5.68774 41.8632 6.19287 43.1472 7.20525L41.7189 9.17696C40.7744 8.46808 39.7769 8.11364 38.7284 8.11364C38.1957 8.11364 37.7606 8.19853 37.421 8.36832C37.0814 8.53812 36.9117 8.78644 36.9117 9.11116C36.9117 9.29581 36.9626 9.45711 37.0666 9.59294C37.1706 9.72878 37.3404 9.84763 37.576 9.94738C37.8115 10.0471 38.0408 10.1278 38.2636 10.1915C38.4865 10.2551 38.7921 10.3273 39.1826 10.4079C39.5222 10.4822 39.796 10.5438 40.0019 10.5968C40.2077 10.6478 40.4773 10.7305 40.8105 10.8409C41.1437 10.9513 41.4132 11.0616 41.6234 11.1741C41.8335 11.2845 42.0627 11.4352 42.311 11.622C42.5593 11.8108 42.7525 12.0125 42.8925 12.2247C43.0326 12.4369 43.1536 12.7001 43.2534 13.01C43.3531 13.3199 43.4019 13.6552 43.4019 14.0181C43.4019 14.8077 43.1812 15.4953 42.7376 16.0768C42.294 16.6605 41.704 17.0935 40.9654 17.3779C40.2268 17.6623 39.3885 17.8045 38.4525 17.8045L38.4568 17.8066Z" fill="#0080FF"/>
<path d="M61.652 4.9118C61.652 3.67232 61.9788 2.69602 62.6325 1.98715C63.2862 1.27827 64.2583 0.923828 65.5508 0.923828C66.37 0.923828 67.098 1.08937 67.7326 1.42259V4.00342C67.2827 3.75298 66.7775 3.62775 66.2151 3.62775C65.6909 3.62775 65.2897 3.75085 65.0138 3.99917C64.7379 4.24749 64.5979 4.61254 64.5979 5.10069V5.96451H67.5098V8.6557H64.5979V17.5273H61.652V8.6557H59.8352V5.96451H61.652V4.9118Z" fill="#0080FF"/>
<path d="M80.8141 5.96355H81.3129V8.82029H80.8141C79.7656 8.82029 78.9485 9.10893 78.3606 9.6841C77.7727 10.2593 77.4798 11.0424 77.4798 12.0315V17.5242H74.5339V5.96355H77.4798V7.45771C78.3649 6.33497 79.477 5.96143 80.8141 5.96143V5.96355Z" fill="#0080FF"/>
<path d="M14.5084 5.68987C15.8158 5.68987 16.8621 6.08039 17.6474 6.86355C18.4348 7.64671 18.8275 8.69093 18.8275 9.99832V17.5286H15.871V10.8834C15.871 10.1745 15.6672 9.6078 15.2555 9.18332C14.8459 8.75884 14.2983 8.54661 13.6106 8.54661C12.8869 8.54661 12.299 8.76521 11.849 9.2003C11.3991 9.63539 11.1741 10.2127 11.1741 10.9279V17.5286H8.22824V10.8834C8.22824 10.183 8.02024 9.61629 7.60213 9.18969C7.18402 8.76097 6.63008 8.54661 5.93606 8.54661C5.24203 8.54661 4.63715 8.76733 4.18508 9.20667C3.73514 9.646 3.51016 10.219 3.51016 10.9279V17.5286H0.566406V5.96578H3.51228V7.16068C4.38247 6.17802 5.52431 5.68774 6.9357 5.68774C7.74009 5.68774 8.45533 5.85117 9.07932 6.18014C9.7033 6.50911 10.1999 6.97179 10.5692 7.5703C11.5222 6.31597 12.8359 5.68774 14.5126 5.68774L14.5084 5.68987Z" fill="#0080FF"/>
<path d="M19.4415 8.42528C19.4054 8.1048 19.2463 7.08605 18.3888 6.20313C17.4847 5.27353 16.4001 5.10798 16.0881 5.0719H19.4394V8.42315L19.4415 8.42528Z" fill="#FFC000"/>
<path d="M102.842 17.5078C102.441 17.5078 102.116 17.183 102.116 16.7819V15.3429C102.116 15.1519 102.184 14.9673 102.309 14.8229L108.038 8.39634H102.112V5.94922H110.71C111.111 5.94922 111.435 6.27394 111.435 6.67508V8.19046C111.435 8.32417 111.385 8.45152 111.295 8.54915L105.501 15.0606H111.429V17.5078H102.842Z" fill="#FFC000"/>
<path d="M99.9207 5.54328C99.5662 5.89348 99.129 6.06964 98.6112 6.06964C98.0933 6.06964 97.654 5.89348 97.3016 5.54328C96.9472 5.19309 96.7689 4.76012 96.7689 4.24862C96.7689 3.73713 96.9451 3.30628 97.3016 2.95397C97.6561 2.60377 98.0933 2.42761 98.6112 2.42761C99.129 2.42761 99.5662 2.60377 99.9207 2.95397C100.275 3.30416 100.453 3.73713 100.453 4.24862C100.453 4.76012 100.275 5.19097 99.9207 5.54328Z" fill="#FFC000"/>
<path d="M97.1514 17.5123V6.65625C97.2957 6.77723 97.8051 7.17411 98.5712 7.18897C99.3862 7.20383 99.9317 6.77086 100.07 6.65625V17.5123H97.1514Z" fill="#FFC000"/>
</svg>