<svg width="15" height="15" viewBox="0 0 15 15" fill="none" xmlns="http://www.w3.org/2000/svg">
<path d="M7.5 8.75C8.19036 8.75 8.75 8.19036 8.75 7.5C8.75 6.80964 8.19036 6.25 7.5 6.25C6.80964 6.25 6.25 6.80964 6.25 7.5C6.25 8.19036 6.80964 8.75 7.5 8.75Z" stroke="#0087FA"/>
<path d="M3.37428 3.67504L3.60865 3.26879C3.51663 3.2157 3.40931 3.19545 3.30427 3.21135C3.19924 3.22725 3.10272 3.27835 3.03053 3.35629L3.37428 3.67504ZM2.1249 5.84004L1.67678 5.70129C1.64543 5.80282 1.64951 5.91199 1.68834 6.0109C1.72718 6.10981 1.79847 6.19259 1.89053 6.24566L2.1249 5.84004ZM2.12365 9.15941L1.88928 8.75316C1.7972 8.80636 1.72595 8.88929 1.68722 8.98832C1.64849 9.08736 1.64459 9.19662 1.67615 9.29816L2.12365 9.15941ZM3.37365 11.3244L3.0299 11.6432C3.10209 11.7211 3.19861 11.7722 3.30365 11.7881C3.40869 11.804 3.51601 11.7837 3.60803 11.7307L3.37365 11.3244ZM6.24865 12.9838H5.7799C5.7799 13.2025 5.93178 13.3919 6.1449 13.4407L6.24865 12.9838ZM8.74928 12.985L8.85365 13.4425C8.95725 13.4189 9.04974 13.3607 9.11594 13.2776C9.18215 13.1945 9.21814 13.0913 9.21803 12.985H8.74928ZM11.6249 11.325L11.3905 11.7313C11.4825 11.7844 11.5899 11.8046 11.6949 11.7887C11.7999 11.7728 11.8965 11.7217 11.9687 11.6438L11.6249 11.325ZM12.8737 9.15879L13.3218 9.29754C13.3531 9.19601 13.349 9.08684 13.3102 8.98793C13.2714 8.88902 13.2001 8.80624 13.108 8.75316L12.8737 9.15879ZM12.8749 5.83941L13.1093 6.24566C13.2014 6.19246 13.2726 6.10954 13.3113 6.01051C13.3501 5.91147 13.354 5.80221 13.3224 5.70066L12.8749 5.83941ZM11.6249 3.67379L11.9687 3.35566C11.8965 3.27773 11.7999 3.22662 11.6949 3.21072C11.5899 3.19483 11.4825 3.21508 11.3905 3.26816L11.6249 3.67379ZM8.7499 2.01566H9.21865C9.21863 1.9095 9.18257 1.80649 9.11637 1.7235C9.05018 1.6405 8.95777 1.58243 8.85428 1.55879L8.7499 2.01566ZM6.2499 2.01441L6.14553 1.55691C6.04193 1.58058 5.94944 1.63874 5.88323 1.72186C5.81703 1.80499 5.78103 1.90814 5.78115 2.01441H6.2499ZM2.57303 5.97879C2.8005 5.23936 3.19165 4.56068 3.7174 3.99316L3.0299 3.35566C2.40862 4.02627 1.94635 4.8282 1.6774 5.70191L2.57303 5.97879ZM3.03428 10.0782C2.84134 9.74436 2.68621 9.39009 2.57178 9.02191L1.67678 9.29879C1.81168 9.73382 1.99469 10.1525 2.2224 10.5469L3.03428 10.0782ZM3.71803 11.0069C3.4563 10.7237 3.22696 10.4122 3.03428 10.0782L2.2224 10.5469C2.44995 10.9414 2.72079 11.3087 3.0299 11.6432L3.71803 11.0069ZM8.64553 12.5288C7.89137 12.7004 7.10824 12.7 6.35428 12.5275L6.14553 13.4413C7.03684 13.6453 7.96268 13.646 8.85428 13.4432L8.64553 12.5288ZM12.4268 9.02129C12.1993 9.76072 11.8082 10.4394 11.2824 11.0069L11.9699 11.6444C12.5912 10.9738 13.0535 10.1719 13.3224 9.29816L12.4268 9.02129ZM11.9655 4.92191C12.1618 5.26483 12.3159 5.61691 12.428 5.97816L13.323 5.70129C13.1881 5.26625 13.0051 4.84762 12.7774 4.45316L11.9655 4.92191ZM11.2812 3.99316C11.5374 4.27004 11.7674 4.58066 11.9649 4.92191L12.7774 4.45316C12.5497 4.05862 12.278 3.6901 11.9687 3.35566L11.2812 3.99316ZM6.35365 2.47129C7.10781 2.29965 7.89093 2.30007 8.6449 2.47254L8.85428 1.55879C7.96296 1.35474 7.0365 1.3541 6.1449 1.55691L6.35365 2.47129ZM6.71803 3.17004V2.01379H5.78053V3.17004H6.71803ZM4.60928 3.84629L3.60865 3.26879L3.1399 4.08066L4.1399 4.65816L4.60928 3.84629ZM2.89053 8.17691L1.8899 8.75441L2.35865 9.56629L3.35928 8.98879L2.89053 8.17691ZM3.35928 6.01129L2.35928 5.43441L1.89053 6.24691L2.89053 6.82379L3.35928 6.01129ZM6.71865 12.9844V11.83H5.78115V12.9844H6.71865ZM4.14053 10.3419L3.1399 10.9194L3.60865 11.7319L4.60865 11.1538L4.14053 10.3419ZM11.8599 10.9194L10.8593 10.3419L10.3905 11.1538L11.3905 11.7313L11.8599 10.9194ZM9.21865 12.9857V11.83H8.28115V12.9863L9.21865 12.9857ZM12.6412 5.43379L11.6405 6.01129L12.1093 6.82379L13.1093 6.24566L12.6412 5.43379ZM13.1087 8.75379L12.1093 8.17629L11.6405 8.98879L12.6405 9.56566L13.1087 8.75379ZM9.21865 3.17004V2.01566H8.28115V3.17004H9.21865ZM11.3912 3.26879L10.3905 3.84629L10.8593 4.65879L11.8599 4.08066L11.3912 3.26879ZM8.28115 3.17004C8.28115 4.49316 9.71365 5.32066 10.8593 4.65879L10.3905 3.84629C10.2718 3.91484 10.1371 3.95094 9.99998 3.95096C9.86287 3.95097 9.72818 3.9149 9.60942 3.84637C9.49066 3.77784 9.39204 3.67927 9.32344 3.56055C9.25485 3.44183 9.21871 3.30715 9.21865 3.17004H8.28115ZM11.6405 6.01129C10.4949 6.67316 10.4949 8.32691 11.6405 8.98879L12.1093 8.17629C11.9905 8.10772 11.8919 8.00909 11.8233 7.89033C11.7548 7.77157 11.7187 7.63686 11.7187 7.49973C11.7187 7.3626 11.7548 7.22788 11.8233 7.10912C11.8919 6.99036 11.9905 6.89174 12.1093 6.82316L11.6405 6.01129ZM10.8593 10.3419C9.71365 9.68004 8.28115 10.5069 8.28115 11.83H9.21865C9.21871 11.6929 9.25485 11.5582 9.32344 11.4395C9.39204 11.3208 9.49066 11.2222 9.60942 11.1537C9.72818 11.0852 9.86287 11.0491 9.99998 11.0491C10.1371 11.0491 10.2718 11.0852 10.3905 11.1538L10.8593 10.3419ZM6.71865 11.83C6.71865 10.5069 5.28615 9.68004 4.14053 10.3419L4.60865 11.1538C4.72739 11.0852 4.86271 11.0491 4.99982 11.0491C5.13693 11.0491 5.27163 11.0852 5.39038 11.1537C5.50914 11.2222 5.60777 11.3208 5.67636 11.4395C5.74495 11.5582 5.78109 11.6929 5.78115 11.83H6.71865ZM3.35928 8.98879C4.5049 8.32691 4.5049 6.67316 3.35928 6.01129L2.89053 6.82379C3.00928 6.89236 3.1079 6.99098 3.17646 7.10974C3.24502 7.2285 3.28112 7.36322 3.28112 7.50035C3.28112 7.63748 3.24502 7.7722 3.17646 7.89096C3.1079 8.00972 3.00928 8.10834 2.89053 8.17691L3.35928 8.98879ZM5.78115 3.17004C5.78109 3.30715 5.74495 3.44183 5.67636 3.56055C5.60777 3.67927 5.50914 3.77784 5.39038 3.84637C5.27163 3.9149 5.13693 3.95097 4.99982 3.95096C4.86271 3.95094 4.72802 3.91484 4.60928 3.84629L4.14053 4.65879C5.28615 5.32004 6.71865 4.49316 6.71865 3.17004H5.78115Z" fill="#0087FA"/>
</svg>
