<svg width="11" height="11" viewBox="0 0 11 11" fill="none" xmlns="http://www.w3.org/2000/svg">
<path d="M5.49992 10.9163C4.75061 10.9163 4.04645 10.7742 3.38742 10.4898C2.72839 10.2054 2.15513 9.81946 1.66763 9.33196C1.18013 8.84447 0.794189 8.2712 0.509814 7.61217C0.225439 6.95315 0.083252 6.24898 0.083252 5.49967C0.083252 4.74134 0.225439 4.03492 0.509814 3.3804C0.794189 2.72589 1.18013 2.15488 1.66763 1.66738L2.42596 2.42572C2.02874 2.82294 1.71954 3.28335 1.49836 3.80697C1.27718 4.33058 1.16659 4.89481 1.16659 5.49967C1.16659 6.7094 1.58638 7.73405 2.42596 8.57363C3.26554 9.41321 4.2902 9.83301 5.49992 9.83301C6.70964 9.83301 7.73429 9.41321 8.57388 8.57363C9.41346 7.73405 9.83325 6.7094 9.83325 5.49967C9.83325 4.89481 9.72266 4.33058 9.50148 3.80697C9.2803 3.28335 8.9711 2.82294 8.57388 2.42572L9.33221 1.66738C9.81971 2.15488 10.2056 2.72589 10.49 3.3804C10.7744 4.03492 10.9166 4.74134 10.9166 5.49967C10.9166 6.24898 10.7744 6.95315 10.49 7.61217C10.2056 8.2712 9.81971 8.84447 9.33221 9.33196C8.84471 9.81946 8.27145 10.2054 7.61242 10.4898C6.95339 10.7742 6.24922 10.9163 5.49992 10.9163ZM4.95825 6.04134V0.0830078H6.04158V6.04134H4.95825Z" fill="#0087FA"/>
</svg>
