<svg width="1160" height="445" viewBox="0 0 1160 445" fill="none" xmlns="http://www.w3.org/2000/svg">
<rect y="0.000976562" width="1160" height="445" rx="10" fill="#CEE4FF"/>
<path fill-rule="evenodd" clip-rule="evenodd" d="M401 40.4991C401 94.8991 356.9 138.999 302.5 138.999C248.1 138.999 204 94.8991 204 40.4991C204 26.0636 207.105 12.3534 212.684 0H10C4.47715 0 0 4.47714 0 9.99999V435C0 440.523 4.47714 445 9.99999 445H59.0023C59.2704 416.235 82.6717 392.999 111.5 392.999C140.328 392.999 163.73 416.235 163.998 445H537.293C537.099 442.191 537 439.357 537 436.499C537 369.396 591.397 314.999 658.5 314.999C725.603 314.999 780 369.396 780 436.499C780 439.357 779.901 442.191 779.707 445H1150C1155.52 445 1160 440.523 1160 435V417.998C1159.83 417.999 1159.67 417.999 1159.5 417.999C1105.1 417.999 1061 373.899 1061 319.499C1061 265.099 1105.1 220.999 1159.5 220.999C1159.67 220.999 1159.83 220.999 1160 221V10C1160 4.47715 1155.52 0 1150 0H966.885C966.961 1.15653 967 2.32329 967 3.49908C967 32.494 943.495 55.9991 914.5 55.9991C885.505 55.9991 862 32.494 862 3.49908C862 2.32329 862.039 1.15653 862.115 0H392.316C397.895 12.3534 401 26.0636 401 40.4991Z" fill="#DCEDFF"/>
</svg>
