<?xml version="1.0" encoding="UTF-8"?>
<svg version="1.1" xmlns="http://www.w3.org/2000/svg" width="800" height="659">
<path d="M0 0 C264 0 528 0 800 0 C800 217.47 800 434.94 800 659 C536 659 272 659 0 659 C0 441.53 0 224.06 0 0 Z " fill="#FEFEFE" transform="translate(0,0)"/>
<path d="M0 0 C5.32747547 1.77582516 10.56700781 3.54526227 15.80859375 5.5234375 C35.15577687 12.79177049 35.15577687 12.79177049 55.00390625 18.51025391 C57.04967021 19.0121867 59.08688909 19.5421413 61.125 20.07421875 C67.2546864 21.62899972 73.25899155 22.9706047 79.55859375 23.6328125 C80.50371826 23.73835449 81.44884277 23.84389648 82.42260742 23.95263672 C84.26462835 24.14636623 86.11033535 24.30847768 87.95825195 24.43408203 C94.17433822 25.08803211 94.17433822 25.08803211 96.68164062 27.85742188 C97.93108254 29.86117637 98.98764861 31.86928574 100 34 C101.54956773 35.54956773 103.14982731 35.28854485 105.3046875 35.46484375 C106.19260986 35.54130127 107.08053223 35.61775879 107.99536133 35.6965332 C108.94564209 35.77605225 109.89592285 35.85557129 110.875 35.9375 C134.06952125 38.04996537 156.46880752 42.89745977 172.45996094 61.14404297 C178.2196727 68.08528089 183.27880373 75.58567912 188.38330078 83.01269531 C189.6448696 84.84642021 190.91366571 86.67477816 192.1875 88.5 C192.78038818 89.35718628 192.78038818 89.35718628 193.38525391 90.23168945 C196.07175883 94.00658743 199.0502819 96.98785855 202.5 100.0625 C207.4321498 104.69409692 208.28032638 108.67351373 208.71875 115.3125 C208.73061053 118.1503896 208.73061053 118.1503896 211 120 C210.9765625 122.1640625 210.9765625 122.1640625 210.625 124.625 C210.51414063 125.44226563 210.40328125 126.25953125 210.2890625 127.1015625 C210.19367188 127.72804688 210.09828125 128.35453125 210 129 C217.88751295 128.47051418 224.39023766 127.12130732 230.75 122.25 C234 120 234 120 236.03125 120.125 C239.73922936 121.77299082 241.3369365 125.44678802 243 129 C243.3125 132 243.3125 132 243 134 C241.73308493 134.67408308 240.46129251 135.33900497 239.1875 136 C238.47980469 136.37125 237.77210938 136.7425 237.04296875 137.125 C235 138 235 138 232 138 C232.32145996 138.6705542 232.64291992 139.3411084 232.97412109 140.03198242 C234.21632954 143.62587296 234.32320614 146.68745701 234.4140625 150.48828125 C234.44311172 151.5430793 234.44311172 151.5430793 234.4727478 152.6191864 C234.53220183 154.85017019 234.57879049 157.08120654 234.625 159.3125 C234.66321137 160.83140186 234.70226492 162.35028278 234.7421875 163.86914062 C234.83787416 167.57923467 234.92203072 171.28948651 235 175 C229.4777786 177.9938499 225.6468307 178.49007787 219.5 178.4375 C218.67113281 178.45748047 217.84226563 178.47746094 216.98828125 178.49804688 C211.36583071 178.49357752 208.36089806 177.57508688 204 174 C203.79260826 185.04121715 203.85557323 195.68459978 205.55078125 206.61328125 C206.35407805 212.66944063 206.95142189 219.14573434 205 225 C204.91621372 227.2838517 204.89270085 229.570101 204.90234375 231.85546875 C204.9037587 232.51710526 204.90517365 233.17874176 204.90663147 233.86042786 C204.91222004 235.96949828 204.92477035 238.07846177 204.9375 240.1875 C204.94251648 241.61913909 204.94707913 243.05077985 204.95117188 244.48242188 C204.9621857 247.98831588 204.97944245 251.4941475 205 255 C201.21323914 255.79616208 197.61776658 256.1825282 193.75 256.375 C188.09270188 256.76330452 182.5346905 257.40147051 176.9375 258.3125 C175.86677246 258.47081299 175.86677246 258.47081299 174.77441406 258.63232422 C171.42556446 259.21110832 169.24810607 259.79813737 166.58984375 261.9609375 C162.88704456 264.87626356 159.19022615 265.41531613 154.625 266.3125 C153.65038818 266.51343262 152.67577637 266.71436523 151.67163086 266.92138672 C148.11889634 267.63939837 144.560844 268.32332871 141 269 C140.2751239 269.13811096 139.5502478 269.27622192 138.80340576 269.41851807 C98.26273485 277.12418909 98.26273485 277.12418909 78 279 C76.90655273 279.10151367 75.81310547 279.20302734 74.68652344 279.30761719 C59.22430924 280.67256341 43.82566756 281.18228068 28.3125 281.1875 C27.52549713 281.18849701 26.73849426 281.18949402 25.92764282 281.19052124 C23.65609614 281.1901938 21.38478712 281.18110834 19.11328125 281.16796875 C17.81173096 281.16047607 16.51018066 281.1529834 15.16918945 281.14526367 C10.10147745 280.96869351 5.04996244 280.45908749 0 280 C0 187.6 0 95.2 0 0 Z " fill="#FEFEFE" transform="translate(0,346)"/>
<path d="M0 0 C12.40798522 0.58122945 24.15556506 3.163669 36.2109375 6.0546875 C36.99098145 6.23966797 37.77102539 6.42464844 38.57470703 6.61523438 C47.16305034 8.66237715 55.6644794 10.98308069 64.13964844 13.45556641 C66.56957781 14.15842434 69.00330152 14.84723059 71.4375 15.53515625 C72.82062378 15.92695068 72.82062378 15.92695068 74.23168945 16.32666016 C76.04235027 16.83937723 77.85336499 17.35084672 79.66479492 17.86083984 C80.51146729 18.10141113 81.35813965 18.34198242 82.23046875 18.58984375 C82.97401611 18.8000415 83.71756348 19.01023926 84.48364258 19.22680664 C88.41842225 20.42122414 92.30988485 21.75433662 96.2109375 23.0546875 C96.2109375 99.2846875 96.2109375 175.5146875 96.2109375 254.0546875 C50.13907125 254.0546875 50.13907125 254.0546875 33.0234375 251.6796875 C31.24442384 251.45349045 29.46512185 251.22955023 27.68554688 251.0078125 C19.4731433 249.97001737 11.28707884 248.78951529 3.11010742 247.50146484 C-1.59635686 246.77617393 -6.31608267 246.16152085 -11.0390625 245.5546875 C-12.02849854 245.42723145 -13.01793457 245.29977539 -14.03735352 245.16845703 C-16.95426795 244.79462056 -19.87160979 244.42429635 -22.7890625 244.0546875 C-23.99828369 243.8995166 -23.99828369 243.8995166 -25.23193359 243.74121094 C-27.39613155 243.46489049 -29.56109536 243.19585735 -31.7265625 242.9296875 C-32.91121094 242.78273438 -34.09585938 242.63578125 -35.31640625 242.484375 C-49.39039944 241.01047898 -63.54314532 240.79617869 -77.67822266 240.50244141 C-94.04667092 240.15471955 -94.04667092 240.15471955 -101.42333984 239.29541016 C-106.40342267 238.78866489 -111.41360803 238.67750203 -116.4140625 238.4921875 C-117.51363281 238.44900391 -118.61320313 238.40582031 -119.74609375 238.36132812 C-122.42699132 238.25642344 -125.10796251 238.15426024 -127.7890625 238.0546875 C-127.78382568 237.02996338 -127.77858887 236.00523926 -127.77319336 234.94946289 C-127.75514281 231.16073474 -127.7436303 227.37201041 -127.73413086 223.58325195 C-127.72909076 221.94099286 -127.72225872 220.29873827 -127.71362305 218.65649414 C-127.70154324 216.30093271 -127.69583111 213.94543041 -127.69140625 211.58984375 C-127.68624496 210.85129654 -127.68108368 210.11274933 -127.67576599 209.3518219 C-127.67557 207.58570662 -127.72711531 205.81971604 -127.7890625 204.0546875 C-128.1190625 203.7246875 -128.4490625 203.3946875 -128.7890625 203.0546875 C-128.87166513 201.62843193 -128.88548499 200.19810184 -128.87084961 198.76953125 C-128.8643187 197.85768066 -128.85778778 196.94583008 -128.85105896 196.00634766 C-128.83962357 195.0116748 -128.82818817 194.01700195 -128.81640625 192.9921875 C-128.8037472 190.89453298 -128.79138721 188.79687663 -128.77929688 186.69921875 C-128.75458483 183.38584751 -128.72674401 180.07257053 -128.69311523 176.75927734 C-128.6627015 173.56607498 -128.64506232 170.37298958 -128.62890625 167.1796875 C-128.61544662 166.2012085 -128.601987 165.22272949 -128.58811951 164.21459961 C-128.56906962 158.93128066 -128.97692347 154.16921419 -130.31752014 149.05041504 C-131.89626919 142.36861246 -132.32923827 133.67590344 -129.62109375 127.30859375 C-128.1015625 125.1171875 -128.1015625 125.1171875 -126.42578125 123.07421875 C-124.67307079 120.91156647 -123.59070824 118.82262907 -122.4140625 116.3046875 C-120.47921025 112.2276774 -118.17696369 108.61361135 -115.6640625 104.8671875 C-110.27306195 96.24767815 -108.8846225 87.27666433 -108.6015625 77.2421875 C-108.15826724 71.81182056 -105.99283633 69.17892371 -102.43359375 65.18359375 C-98.8403741 61.08971414 -95.87013716 56.53706963 -92.7890625 52.0546875 C-83.27136838 38.33623616 -83.27136838 38.33623616 -77.7890625 32.0546875 C-77.23347656 31.41660156 -76.67789063 30.77851563 -76.10546875 30.12109375 C-60.73834291 13.61829117 -35.89916211 9.32308644 -14.43725586 8.39599609 C-11.33067807 8.25470568 -8.75758364 8.04419455 -5.7890625 7.0546875 C-4.63070577 4.07965628 -4.63070577 4.07965628 -3.7890625 1.0546875 C-2.7890625 0.0546875 -2.7890625 0.0546875 0 0 Z " fill="#FEFEFE" transform="translate(703.7890625,372.9453125)"/>
<path d="M0 0 C1.9950268 -0.0170906 3.98976597 -0.06096553 5.984375 -0.10522461 C14.62031868 -0.16204003 20.00929792 0.49668065 26.9296875 5.87329102 C37.40652318 17.79905078 42.2858958 33.45988456 45.50390625 48.69360352 C45.7671167 49.9354541 46.03032715 51.17730469 46.30151367 52.45678711 C46.49849854 53.39345215 46.6954834 54.33011719 46.8984375 55.29516602 C47.86777222 55.29730354 47.86777222 55.29730354 48.85668945 55.29948425 C55.60589598 55.31922896 62.35420391 55.37360548 69.10302734 55.44775391 C71.6189122 55.47089629 74.13489342 55.48532074 76.65087891 55.49072266 C80.27567336 55.50003905 83.89895988 55.54109313 87.5234375 55.58813477 C89.20046753 55.58223579 89.20046753 55.58223579 90.91137695 55.57621765 C97.82976912 55.70436401 102.56898312 56.72628534 107.8984375 61.29516602 C110.88669251 64.75033587 111.38140538 67.74001619 111.18359375 72.30688477 C110.54551278 76.75596986 108.71222705 79.54397566 105.4609375 82.54516602 C101.50368529 85.24767972 98.87983619 86.54769969 94.03808594 86.5222168 C93.07739197 86.52206573 92.116698 86.52191467 91.12689209 86.52175903 C89.58294769 86.50627518 89.58294769 86.50627518 88.0078125 86.49047852 C86.94806213 86.48764862 85.88831177 86.48481873 84.79644775 86.48190308 C81.41366253 86.47071336 78.03114263 86.44561072 74.6484375 86.42016602 C72.35417049 86.41013466 70.05989933 86.40100909 67.765625 86.39282227 C62.14313873 86.37077798 56.52080707 86.33731228 50.8984375 86.29516602 C51.06069824 87.29660645 51.22295898 88.29804688 51.39013672 89.32983398 C51.88436031 93.18534772 52.02778117 96.85588654 52.03125 100.74047852 C52.03268509 101.77807816 52.03268509 101.77807816 52.03414917 102.8366394 C52.03482561 104.29384452 52.03300895 105.75105274 52.02880859 107.20825195 C52.02350214 109.3935456 52.02874634 111.57862907 52.03515625 113.76391602 C52.03879219 122.31927794 51.71039681 130.77051806 50.8984375 139.29516602 C51.50929703 139.28406296 52.12015656 139.2729599 52.74952698 139.26152039 C59.12494236 139.15064006 65.50008249 139.07537991 71.8762207 139.02050781 C74.25361259 138.99541105 76.63092767 138.96132612 79.00805664 138.91796875 C82.43134542 138.8571071 85.85361141 138.82890682 89.27734375 138.80688477 C90.33490372 138.78107834 91.39246368 138.75527191 92.48207092 138.72868347 C99.33098867 138.72609826 102.77943759 139.67265341 107.8984375 144.29516602 C110.82769396 147.79137534 111.38145592 150.73884944 111.18359375 155.30688477 C110.54986577 159.72561825 108.71307097 162.52340799 105.5234375 165.54516602 C101.22348439 168.41180142 97.72155191 169.54734662 92.55737305 169.5222168 C90.99632088 169.5219902 90.99632088 169.5219902 89.4037323 169.52175903 C87.73628716 169.50627518 87.73628716 169.50627518 86.03515625 169.49047852 C84.88803665 169.48764862 83.74091705 169.48481873 82.55903625 169.48190308 C78.90122982 169.47072298 75.24366972 169.44562197 71.5859375 169.42016602 C69.10351917 169.41013343 66.62109699 169.40100806 64.13867188 169.39282227 C58.05850994 169.37079072 51.97849132 169.33733449 45.8984375 169.29516602 C45.81041367 170.1868322 45.81041367 170.1868322 45.72061157 171.09651184 C43.8351744 189.24669947 37.11904529 210.13478763 22.8984375 222.29516602 C17.12950447 225.15883955 11.00601829 224.74076725 4.71606445 224.77563477 C2.60141719 224.79502408 0.49068709 224.85710624 -1.62304688 224.92016602 C-8.76417051 225.03164216 -14.14974788 224.87485252 -19.61010742 219.88305664 C-20.1022876 219.35905273 -20.59446777 218.83504883 -21.1015625 218.29516602 C-21.68333252 217.81756836 -22.26510254 217.3399707 -22.86450195 216.84790039 C-24.1015625 215.29516602 -24.1015625 215.29516602 -23.91162109 213.33056641 C-23.11803153 211.33654706 -22.24364636 209.56872436 -21.140625 207.72875977 C-20.55667969 206.75326172 -20.55667969 206.75326172 -19.9609375 205.75805664 C-19.55359375 205.08967773 -19.14625 204.42129883 -18.7265625 203.73266602 C-18.12714844 202.72429687 -18.12714844 202.72429687 -17.515625 201.69555664 C-14.96532954 197.47162979 -12.91470137 194.22281846 -8.4140625 191.92016602 C-7.269375 191.11579102 -7.269375 191.11579102 -6.1015625 190.29516602 C-5.68375371 187.66822179 -5.68375371 187.66822179 -6.1015625 185.29516602 C-6.8646875 185.79016602 -7.6278125 186.28516602 -8.4140625 186.79516602 C-11.1015625 188.29516602 -11.1015625 188.29516602 -14.1015625 188.29516602 C-16.2337909 191.18675946 -18.0450101 194.19995912 -19.87890625 197.28735352 C-23.51562722 202.14069904 -26.25677952 204.87508363 -32.45117188 205.78979492 C-41.0160428 206.26574265 -49.55023967 205.89524412 -58.1015625 205.29516602 C-58.1015625 204.30516602 -58.1015625 203.31516602 -58.1015625 202.29516602 C-58.6790625 202.79016602 -59.2565625 203.28516602 -59.8515625 203.79516602 C-62.1015625 205.29516602 -62.1015625 205.29516602 -66.1015625 205.29516602 C-65.76125 206.37797852 -65.76125 206.37797852 -65.4140625 207.48266602 C-65.01079008 211.11211776 -65.93013578 212.42578071 -68.1015625 215.29516602 C-71.1015625 217.29516602 -71.1015625 217.29516602 -73.6015625 217.23266602 C-76.1015625 216.29516602 -76.1015625 216.29516602 -77.8515625 214.35766602 C-79.1005701 211.2975974 -79.12195379 209.87669558 -79.1015625 206.67016602 C-79.5283518 200.97127366 -82.28514671 198.6167382 -86.38989258 194.89428711 C-90.67892234 190.93129196 -93.98523173 186.60064218 -97.2890625 181.79516602 C-97.79518066 181.06088379 -98.30129883 180.32660156 -98.82275391 179.57006836 C-99.80527936 178.1364846 -100.78503252 176.70099605 -101.76171875 175.26342773 C-107.33434376 167.07711162 -113.21942978 159.42893065 -120.1015625 152.29516602 C-120.65199219 151.71895508 -121.20242187 151.14274414 -121.76953125 150.54907227 C-134.37270061 138.56828164 -157.27297591 133.5884444 -174.1328125 133.17016602 C-184.17285274 132.88795948 -184.17285274 132.88795948 -187.12109375 131.00610352 C-189.1388582 128.64526096 -190.12575061 126.22260168 -191.1015625 123.29516602 C-191.78331543 123.21065186 -192.46506836 123.1261377 -193.16748047 123.0390625 C-225.54569471 118.91412231 -256.35222612 109.75319914 -286.1015625 96.29516602 C-286.1015625 88.37516602 -286.1015625 80.45516602 -286.1015625 72.29516602 C-281.95179985 73.67842023 -277.93769465 75.10849222 -273.8828125 76.72094727 C-272.70203125 77.18823242 -271.52125 77.65551758 -270.3046875 78.13696289 C-267.86694996 79.10511498 -265.42944368 80.07384964 -262.9921875 81.04321289 C-251.43839891 85.61346152 -239.84125828 90.05811291 -227.8515625 93.35766602 C-226.94841309 93.60661621 -226.04526367 93.85556641 -225.11474609 94.11206055 C-213.62136873 97.13396736 -201.86626523 98.72484744 -190.1015625 100.29516602 C-189.80507812 99.50698486 -189.50859375 98.71880371 -189.203125 97.90673828 C-187.8894599 94.79231549 -187.10626224 93.83210947 -184.1015625 92.29516602 C-181.38219973 92.01678297 -178.8225606 91.88552106 -176.1015625 91.85766602 C-155.59323398 91.10577775 -133.0563698 86.40739234 -118.1015625 71.29516602 C-112.12758862 64.82489277 -107.09637953 57.95134974 -102.29296875 50.57641602 C-84.77831893 24.3512719 -84.77831893 24.3512719 -71.1015625 19.29516602 C-67.8380113 18.84639127 -64.66495469 18.94467483 -61.37890625 19.07250977 C-59.52280677 19.09211554 -57.66668423 19.10963086 -55.81054688 19.12524414 C-52.91699417 19.17074412 -50.02675062 19.23308928 -47.13452148 19.33251953 C-36.01786143 20.19045147 -36.01786143 20.19045147 -26.38647461 15.91137695 C-24.50771065 13.04265264 -24.50771065 13.04265264 -23.31787109 10.02246094 C-18.96480629 0.26170483 -9.23019934 0.05499511 0 0 Z " fill="#01AAF4" transform="translate(286.1015625,249.704833984375)"/>
<path d="M0 0 C1.25490234 -0.02900391 2.50980469 -0.05800781 3.80273438 -0.08789062 C12.28953018 -0.14598875 18.10228082 0.56428717 24.51953125 6.27734375 C25.04933594 6.92832031 25.57914063 7.57929688 26.125 8.25 C26.68960938 8.94222656 27.25421875 9.63445312 27.8359375 10.34765625 C32.3125 16.30456349 32.3125 16.30456349 32.3125 19.3125 C33.53243652 19.28631592 34.75237305 19.26013184 36.00927734 19.2331543 C40.57516836 19.14202527 45.14098053 19.08502459 49.70751953 19.0378418 C51.67640747 19.01283953 53.64520393 18.978826 55.61376953 18.93530273 C76.72804796 18.48048427 76.72804796 18.48048427 84.3125 24.3125 C85.20582031 24.98667969 86.09914063 25.66085937 87.01953125 26.35546875 C95.86693799 35.36702033 102.86100497 45.80640481 109.9765625 56.19921875 C119.28279997 69.71133522 128.97593598 79.16062615 144.3125 85.3125 C144.95896484 85.57289063 145.60542969 85.83328125 146.27148438 86.1015625 C156.76505232 90.13346929 167.21079455 91.07226486 178.40380859 91.41748047 C187.41579059 91.8217334 187.41579059 91.8217334 191.01953125 94.625 C193.20432324 97.1857102 193.7015362 98.17446279 194.3125 101.3125 C196.11460937 101.24482422 196.11460937 101.24482422 197.953125 101.17578125 C204.43801911 101.18210921 210.69547714 102.36114889 217.0625 103.5 C218.34656738 103.72703613 219.63063477 103.95407227 220.95361328 104.18798828 C238.90693528 107.42921809 256.18698079 112.02844381 273.58837891 117.46923828 C280.13905426 119.49702396 286.73030405 121.39026579 293.3125 123.3125 C293.3125 130.9025 293.3125 138.4925 293.3125 146.3125 C288.19709372 145.58172767 284.68751973 144.88286642 280 143.1875 C269.59084068 139.55598687 258.89945848 136.89459434 248.24511719 134.09082031 C245.82760264 133.44920889 243.41612488 132.79227163 241.0078125 132.1171875 C225.58572374 127.83139916 210.33457745 124.76004406 194.3125 124.3125 C193.879375 125.26125 193.44625 126.21 193 127.1875 C191.3125 130.3125 191.3125 130.3125 188.3125 132.3125 C185.74951497 132.54416569 183.25478571 132.67960437 180.6875 132.75 C157.9251875 133.79517094 135.58680656 139.43263785 119.3125 156.3125 C112.32803554 164.49759968 106.31640076 173.47984124 100.22167969 182.33325195 C97.10174605 186.84967217 93.90829104 191.16351034 90.3125 195.3125 C88.80833452 192.30416904 89.70410263 189.96288422 90.25 186.6875 C90.54197266 184.90472656 90.54197266 184.90472656 90.83984375 183.0859375 C90.99582031 182.17070312 91.15179687 181.25546875 91.3125 180.3125 C90.3225 180.3125 89.3325 180.3125 88.3125 180.3125 C88.126875 181.5190625 88.126875 181.5190625 87.9375 182.75 C87.73125 183.595625 87.525 184.44125 87.3125 185.3125 C86.6525 185.6425 85.9925 185.9725 85.3125 186.3125 C84.88047133 189.02785907 84.88047133 189.02785907 84.75 192.1875 C84.55363676 195.51365284 84.36874392 198.14376825 83.3125 201.3125 C77.77498893 205.60359457 71.86158056 205.85777907 65.125 205.703125 C64.18188965 205.69746521 63.2387793 205.69180542 62.26708984 205.68597412 C59.28169022 205.66374585 56.29753126 205.6135756 53.3125 205.5625 C51.27736119 205.54241746 49.24220341 205.52416978 47.20703125 205.5078125 C42.24171609 205.46392557 37.27731773 205.39499314 32.3125 205.3125 C32.0227832 206.24747314 31.73306641 207.18244629 31.43457031 208.14575195 C30.17063986 211.7128629 28.60202317 213.71429857 26.0625 216.5 C24.94101562 217.75876953 24.94101562 217.75876953 23.796875 219.04296875 C17.2740171 225.00174303 10.85827879 224.8121314 2.42700195 224.75854492 C0.383252 224.75003436 -1.65769725 224.77883651 -3.70117188 224.81054688 C-12.83628056 224.80603125 -18.0064768 224.01809138 -24.625 217.5625 C-34.29956889 205.52764755 -39.39378832 189.24698813 -42.3125 174.375 C-42.51617187 173.38048828 -42.71984375 172.38597656 -42.9296875 171.36132812 C-43.53879388 168.34898474 -44.12050586 165.33304131 -44.6875 162.3125 C-44.87151367 161.33265137 -45.05552734 160.35280273 -45.24511719 159.34326172 C-47.71689602 145.43779247 -47.87392207 131.5959461 -47.87280273 117.51464844 C-47.87497082 114.47836889 -47.89313303 111.44246476 -47.91210938 108.40625 C-47.96531495 90.3603267 -47.22329238 72.19823409 -43.4375 54.5 C-43.1132605 52.94865356 -43.1132605 52.94865356 -42.7824707 51.3659668 C-39.21112176 34.9122975 -33.9548211 13.59053183 -19.625 3.0625 C-13.38887296 -0.65263951 -7.07282602 0.05366332 0 0 Z " fill="#01AAF4" transform="translate(506.6875,249.6875)"/>
<path d="M0 0 C3.98340305 -0.09973852 7.96631108 -0.17187198 11.95068359 -0.21972656 C13.96347627 -0.24946045 15.97592134 -0.30031729 17.98828125 -0.3515625 C26.68406062 -0.43895727 32.0625346 0.16396919 39.03125 5.578125 C49.50808568 17.50388477 54.3874583 33.16471855 57.60546875 48.3984375 C58.00028442 50.26121338 58.00028442 50.26121338 58.40307617 52.16162109 C58.60006104 53.09828613 58.7970459 54.03495117 59 55 C59.96933472 55.00213753 59.96933472 55.00213753 60.95825195 55.00431824 C67.70745848 55.02406294 74.45576641 55.07843946 81.20458984 55.15258789 C83.7204747 55.17573028 86.23645592 55.19015472 88.75244141 55.19555664 C92.37723586 55.20487304 96.00052238 55.24592711 99.625 55.29296875 C101.30203003 55.28706978 101.30203003 55.28706978 103.01293945 55.28105164 C109.93133162 55.40919799 114.67054562 56.43111932 120 61 C122.98825501 64.45516986 123.48296788 67.44485018 123.28515625 72.01171875 C122.64707528 76.46080384 120.81378955 79.24880965 117.5625 82.25 C113.60524779 84.95251371 110.98139869 86.25253368 106.13964844 86.22705078 C105.17895447 86.22689972 104.2182605 86.22674866 103.22845459 86.22659302 C102.19915833 86.21627045 101.16986206 86.20594788 100.109375 86.1953125 C99.04962463 86.1924826 97.98987427 86.18965271 96.89801025 86.18673706 C93.51522503 86.17554734 90.13270513 86.1504447 86.75 86.125 C84.45573299 86.11496865 82.16146183 86.10584307 79.8671875 86.09765625 C74.24470123 86.07561196 68.62236957 86.04214627 63 86 C63.16226074 87.00144043 63.32452148 88.00288086 63.49169922 89.03466797 C63.98592281 92.8901817 64.12934367 96.56072053 64.1328125 100.4453125 C64.13376923 101.13704559 64.13472595 101.82877869 64.13571167 102.54147339 C64.13638811 103.9986785 64.13457145 105.45588672 64.13037109 106.91308594 C64.12506464 109.09837959 64.13030884 111.28346306 64.13671875 113.46875 C64.14035469 122.02411193 63.81195931 130.47535204 63 139 C63.61085953 138.98889694 64.22171906 138.97779388 64.85108948 138.96635437 C71.22650486 138.85547404 77.60164499 138.7802139 83.9777832 138.7253418 C86.35517509 138.70024504 88.73249017 138.6661601 91.10961914 138.62280273 C94.53290792 138.56194108 97.95517391 138.53374081 101.37890625 138.51171875 C102.43646622 138.48591232 103.49402618 138.4601059 104.58363342 138.43351746 C111.43255117 138.43093224 114.88100009 139.37748739 120 144 C122.92925646 147.49620932 123.48301842 150.44368342 123.28515625 155.01171875 C122.65142827 159.43045223 120.81463347 162.22824198 117.625 165.25 C113.32504689 168.1166354 109.82311441 169.25218061 104.65893555 169.22705078 C103.09788338 169.22682419 103.09788338 169.22682419 101.5052948 169.22659302 C99.83784966 169.21110916 99.83784966 169.21110916 98.13671875 169.1953125 C96.98959915 169.1924826 95.84247955 169.18965271 94.66059875 169.18673706 C91.00279232 169.17555697 87.34523222 169.15045595 83.6875 169.125 C81.20508167 169.11496741 78.72265949 169.10584205 76.24023438 169.09765625 C70.16007244 169.07562471 64.08005382 169.04216848 58 169 C57.94131744 169.59444412 57.88263489 170.18888824 57.82217407 170.80134583 C55.9367369 188.95153345 49.22060779 209.83962161 35 222 C29.23106697 224.86367353 23.10758079 224.44560124 16.81762695 224.48046875 C14.70297969 224.49985807 12.59224959 224.56194023 10.47851562 224.625 C3.33739199 224.73647614 -2.04818538 224.57968651 -7.50854492 219.58789062 C-8.0007251 219.06388672 -8.49290527 218.53988281 -9 218 C-9.58177002 217.52240234 -10.16354004 217.04480469 -10.76293945 216.55273438 C-12 215 -12 215 -11.81005859 213.03540039 C-11.01646903 211.04138105 -10.14208386 209.27355834 -9.0390625 207.43359375 C-8.64976562 206.78326172 -8.26046875 206.13292969 -7.859375 205.46289062 C-7.45203125 204.79451172 -7.0446875 204.12613281 -6.625 203.4375 C-6.22539062 202.76525391 -5.82578125 202.09300781 -5.4140625 201.40039062 C-2.86376704 197.17646377 -0.81313887 193.92765244 3.6875 191.625 C4.8321875 190.820625 4.8321875 190.820625 6 190 C6.41780879 187.37305578 6.41780879 187.37305578 6 185 C5.21625 185.515625 4.4325 186.03125 3.625 186.5625 C2.75875 187.036875 1.8925 187.51125 1 188 C0.34 187.67 -0.32 187.34 -1 187 C-1.92258051 184.06174854 -2.71493714 181.17625751 -3.4375 178.1875 C-3.65631836 177.29329346 -3.87513672 176.39908691 -4.10058594 175.4777832 C-5.57599605 169.25087692 -6.78705194 163.01340442 -7.75 156.6875 C-7.86529053 155.93815186 -7.98058105 155.18880371 -8.09936523 154.41674805 C-9.96406351 141.23399466 -10.1630531 127.99889477 -10.13037109 114.71240234 C-10.12502082 112.13503094 -10.13034762 109.55783485 -10.13671875 106.98046875 C-10.14435203 92.4454848 -9.90701169 77.95660106 -7.25 63.625 C-7.0751709 62.65949219 -6.9003418 61.69398438 -6.72021484 60.69921875 C-2.59616182 38.65599239 2.36913993 17.11216577 20 2 C13.4 1.67 6.8 1.34 0 1 C0 0.67 0 0.34 0 0 Z " fill="#ACDCF2" transform="translate(274,250)"/>
<path d="M0 0 C1.25361328 0.00322266 2.50722656 0.00644531 3.79882812 0.00976562 C5.76432617 0.02233398 5.76432617 0.02233398 7.76953125 0.03515625 C9.10481606 0.04017308 10.44010266 0.04473566 11.77539062 0.04882812 C15.04431598 0.0606293 18.31315116 0.07709328 21.58203125 0.09765625 C21.58203125 0.42765625 21.58203125 0.75765625 21.58203125 1.09765625 C15.64203125 1.42765625 9.70203125 1.75765625 3.58203125 2.09765625 C4.57203125 2.79890625 5.56203125 3.50015625 6.58203125 4.22265625 C29.2835522 23.85144608 31.38210406 66.4943554 33.39013672 93.76708984 C34.94695079 120.78751927 32.74660232 147.57410481 27.58203125 174.09765625 C27.43540039 174.8551416 27.28876953 175.61262695 27.13769531 176.39306641 C23.59613745 193.97407941 17.19202812 213.024325 1.70703125 223.34765625 C-2.96401026 224.99625914 -6.50091974 224.49987073 -10.98046875 222.53515625 C-23.96323082 214.08193561 -30.61497887 194.61633655 -33.83203125 180.1953125 C-34.24420296 178.18532325 -34.6478264 176.17356252 -35.04296875 174.16015625 C-35.24664062 173.16564453 -35.4503125 172.17113281 -35.66015625 171.14648438 C-36.26926263 168.13414099 -36.85097461 165.11819756 -37.41796875 162.09765625 C-37.60198242 161.11780762 -37.78599609 160.13795898 -37.97558594 159.12841797 C-40.44736477 145.22294872 -40.60439082 131.38110235 -40.60327148 117.29980469 C-40.60543957 114.26352514 -40.62360178 111.22762101 -40.64257812 108.19140625 C-40.6957837 90.14548295 -39.95376113 71.98339034 -36.16796875 54.28515625 C-35.84372925 52.73380981 -35.84372925 52.73380981 -35.51293945 51.15112305 C-31.94159051 34.69745375 -26.68528985 13.37568808 -12.35546875 2.84765625 C-8.00119713 0.25362209 -4.99173029 -0.02258701 0 0 Z " fill="#01AAF4" transform="translate(499.41796875,249.90234375)"/>
<path d="M0 0 C9.46397047 7.9205631 13.87655479 18.96543334 15.25 30.9375 C16.1112264 48.69172044 15.09659739 65.79332074 3.12109375 80.03515625 C-4.085843 87.36245938 -13.61151385 89.95016472 -23.6875 90.4375 C-32.95126803 90.16114894 -41.36015539 86.3566755 -48.0078125 79.9296875 C-57.85573364 68.66861176 -60.08700124 55.79394332 -60.1875 41.3125 C-60.19765137 40.27601318 -60.20780273 39.23952637 -60.21826172 38.17163086 C-60.06934423 24.91692542 -56.76204704 12.86354095 -47.83203125 2.76953125 C-34.40636675 -9.79860578 -14.87401971 -10.46969915 0 0 Z " fill="#0368C4" transform="translate(422.75,86.0625)"/>
<path d="M0 0 C3.70806596 -0.11674705 7.4156554 -0.18743274 11.125 -0.25 C12.17171875 -0.28351563 13.2184375 -0.31703125 14.296875 -0.3515625 C22.70192006 -0.45795548 25.81446786 0.95296925 31.875 6.75 C45.50403586 23.72402117 50.36418993 47.90420565 53 69 C53.10151367 69.72993164 53.20302734 70.45986328 53.30761719 71.21191406 C59.22596063 114.50730348 59.75524691 175.93757152 34 213 C30.13683183 217.62664014 26.77909936 221.05512077 21 223 C18.32104492 223.22705078 18.32104492 223.22705078 15.48046875 223.1953125 C13.9480957 223.18564453 13.9480957 223.18564453 12.38476562 223.17578125 C10.80211914 223.15064453 10.80211914 223.15064453 9.1875 223.125 C8.11306641 223.11597656 7.03863281 223.10695313 5.93164062 223.09765625 C3.28753146 223.07415306 0.64388128 223.04129575 -2 223 C-0.08843416 221.56502985 1.82311339 220.13058743 3.74609375 218.7109375 C8.70795031 214.79187296 11.32399565 210.677576 14 205 C14.56847656 203.82050781 15.13695312 202.64101563 15.72265625 201.42578125 C39.1106457 151.47897271 37.22289828 79.00974293 18.86328125 27.77734375 C14.67710942 16.69397638 9.38855849 7.37672453 0 0 Z " fill="#007FDC" transform="translate(501,251)"/>
<path d="M0 0 C1.03125 0.00322266 2.0625 0.00644531 3.125 0.00976562 C4.20523438 0.01814453 5.28546875 0.02652344 6.3984375 0.03515625 C8.03039062 0.04192383 8.03039062 0.04192383 9.6953125 0.04882812 C12.38807539 0.06063849 15.08072938 0.07710847 17.7734375 0.09765625 C16.62488281 1.24427734 16.62488281 1.24427734 15.453125 2.4140625 C14.56882812 3.29964844 13.68453125 4.18523437 12.7734375 5.09765625 C12.00386719 5.85369141 12.00386719 5.85369141 11.21875 6.625 C-12.30167813 31.74593064 -12.45518635 78.75500456 -12.4140625 110.78515625 C-12.41345825 111.66161804 -12.412854 112.53807983 -12.41223145 113.44110107 C-12.37632441 132.67895167 -10.90785231 151.08250677 -7.2265625 169.984375 C-7.06712158 170.81388672 -6.90768066 171.64339844 -6.7434082 172.49804688 C-6.37519707 174.35006018 -5.9830991 176.19739202 -5.57495117 178.04101562 C-5.26908081 179.49797852 -5.26908081 179.49797852 -4.95703125 180.984375 C-4.76262451 181.86440186 -4.56821777 182.74442871 -4.36791992 183.65112305 C-4.19699382 186.60941403 -4.85573358 187.827464 -6.5390625 190.22265625 C-7.73064065 191.54907812 -8.96452423 192.83808772 -10.2265625 194.09765625 C-10.99871094 194.92007813 -11.77085937 195.7425 -12.56640625 196.58984375 C-14.73162993 198.84279934 -16.86185752 201.05455114 -19.2265625 203.09765625 C-19.8865625 203.09765625 -20.5465625 203.09765625 -21.2265625 203.09765625 C-26.73962231 191.76988122 -29.6678198 180.39358777 -32.2265625 168.09765625 C-32.55068115 166.54812256 -32.55068115 166.54812256 -32.88134766 164.96728516 C-36.4760499 146.65685984 -36.61791619 128.31809219 -36.6640625 109.72265625 C-36.67032654 108.53671875 -36.67659058 107.35078125 -36.68304443 106.12890625 C-36.75104492 85.74426185 -35.73464533 65.31842731 -30.4140625 45.53515625 C-30.15616943 44.54612305 -29.89827637 43.55708984 -29.63256836 42.53808594 C-25.58538173 27.48918439 -20.30019885 10.58245125 -7.2265625 1.09765625 C-4.66933021 -0.1809599 -2.85919148 -0.01570984 0 0 Z " fill="#027FDC" transform="translate(277.2265625,250.90234375)"/>
<path d="M0 0 C2.08218362 -0.10832169 4.16599129 -0.18573541 6.25 -0.25 C7.99023438 -0.31960938 7.99023438 -0.31960938 9.765625 -0.390625 C13 0 13 0 15.359375 1.890625 C18.60503818 6.06362052 18.52938309 9.85370205 18 15 C17.04605164 17.02237052 16.05464649 19.0282696 15 21 C15.19530151 23.29887008 15.19530151 23.29887008 16 25 C19.9520518 24.41827275 22.22095053 22.44842259 25.25 19.9375 C26.58804688 18.83728516 26.58804688 18.83728516 27.953125 17.71484375 C28.62859375 17.14894531 29.3040625 16.58304687 30 16 C32.31 17.98 34.62 19.96 37 22 C35.6174384 25.64074554 33.99482783 29.02239995 32.125 32.4375 C31.63257813 33.34371094 31.14015625 34.24992187 30.6328125 35.18359375 C29 38 29 38 26.828125 40.828125 C24.49648854 44.8736139 24.46953115 47.74253419 24.625 52.3125 C24.62693359 53.37500977 24.62693359 53.37500977 24.62890625 54.45898438 C24.6892356 58.15583269 25.06834214 61.50224376 26.01098633 65.07885742 C27.23903585 70.45341525 27.23568765 75.63406761 27.16015625 81.125 C27.15495468 82.15310791 27.14975311 83.18121582 27.14439392 84.24047852 C27.1267108 87.49380224 27.09551886 90.74679874 27.0625 94 C27.03490024 97.2817318 27.01023312 100.56342124 26.99131775 103.84521484 C26.97903366 105.88073713 26.96140408 107.91623532 26.93800354 109.95166016 C26.93147263 110.86351074 26.92494171 111.77536133 26.91821289 112.71484375 C26.90583336 113.92321899 26.90583336 113.92321899 26.89320374 115.15600586 C26.79594708 117.017627 26.79594708 117.017627 28 118 C28.09947504 119.49343936 28.13080287 120.99153398 28.1328125 122.48828125 C28.13474609 123.41753418 28.13667969 124.34678711 28.13867188 125.30419922 C28.13416016 126.29693848 28.12964844 127.28967773 28.125 128.3125 C28.12306641 129.31039551 28.12113281 130.30829102 28.11914062 131.33642578 C28.07854953 138.27186544 27.81431718 145.10738669 27 152 C24.36 152 21.72 152 19 152 C17.42231779 146.78035024 16.26327563 141.5824353 15.2734375 136.22265625 C15.04462387 135.00563271 15.04462387 135.00563271 14.81118774 133.76402283 C14.32936602 131.19741639 13.85211139 128.62998577 13.375 126.0625 C13.04717759 124.31179227 12.71905556 122.56114062 12.390625 120.81054688 C11.5902843 116.54100513 10.79403567 112.27071863 10 108 C10.14800049 108.99330322 10.29600098 109.98660645 10.44848633 111.01000977 C11.73374673 120.08908138 12.1872199 128.75447519 11.6875 137.9375 C11.63916016 139.09701172 11.59082031 140.25652344 11.54101562 141.45117188 C11.15147302 149.84852698 11.15147302 149.84852698 10 151 C6.5 151.125 6.5 151.125 3 151 C1.22759499 149.22759499 1.4691652 146.60115516 1.16796875 144.19140625 C1.00876953 142.96744141 0.84957031 141.74347656 0.68554688 140.48242188 C0.36200476 137.93595513 0.04151767 135.3890977 -0.27539062 132.84179688 C-0.51999023 130.97297852 -0.51999023 130.97297852 -0.76953125 129.06640625 C-0.8549971 128.41000656 -0.94046295 127.75360687 -1.02851868 127.07731628 C-1.59549809 123.02617617 -2.47161152 119.19719543 -3.57199097 115.24963379 C-7.4289175 100.81292428 -6.41245862 85.69577434 -6.21636963 70.88024902 C-6.13997519 64.74705138 -6.10303708 58.61344112 -6.06087685 52.47993279 C-6.04325484 50.35096937 -6.01714713 48.22225062 -5.98930359 46.09339905 C-5.97631729 44.81033371 -5.96333099 43.52726837 -5.94995117 42.20532227 C-5.92852303 40.51138084 -5.92852303 40.51138084 -5.90666199 38.78321838 C-5.87089414 35.91356271 -5.87089414 35.91356271 -7 33 C-5.85443741 30.21365766 -4.23549622 28.01357045 -2 26 C1.8125 25.5625 1.8125 25.5625 5 26 C3.76840806 22.43964903 3.76840806 22.43964903 1.5 19.5 C-1.41704426 16.58295574 -1.95669254 13.59547753 -2.25 9.5625 C-2.0016801 6.02394142 -1.17769178 3.32277323 0 0 Z " fill="#BADFF8" transform="translate(549,459)"/>
<path d="M0 0 C2.69767479 2.69767479 3.05992728 5.20779484 4.0625 8.875 C4.40410156 10.10992188 4.74570313 11.34484375 5.09765625 12.6171875 C5.39542969 13.73351562 5.69320312 14.84984375 6 16 C6.18126938 16.64088562 6.36253876 17.28177124 6.54930115 17.94207764 C7.02844939 20.1299019 7.12026677 22.07143206 7.11352539 24.30957031 C7.11344986 25.15013977 7.11337433 25.99070923 7.11329651 26.85675049 C7.10813522 27.75480408 7.10297394 28.65285767 7.09765625 29.578125 C7.09553383 30.96798615 7.09553383 30.96798615 7.09336853 32.38592529 C7.08777824 35.34064992 7.0752275 38.29529833 7.0625 41.25 C7.05748375 43.25520724 7.05292106 45.26041567 7.04882812 47.265625 C7.03781199 52.17711263 7.020554 57.0885434 7 62 C9.64 61.34 12.28 60.68 15 60 C15.33 58.35 15.66 56.7 16 55 C31.20441651 54.85979534 46.21609699 54.85819328 61.25 57.4375 C61.96567139 57.55971924 62.68134277 57.68193848 63.41870117 57.80786133 C66.90097401 58.4509932 69.94200357 59.17938872 73 61 C73 61.99 73 62.98 73 64 C49.49437582 72.59755976 23.38680048 70.24533938 -1.22149658 69.90020752 C-6.44668493 69.8272076 -11.67151055 69.77074577 -16.89710808 69.73730659 C-19.30243156 69.71553593 -21.70651204 69.67014456 -24.11146545 69.62376404 C-33.85075802 69.51413828 -41.70552678 70.88203454 -51 74 C-63.52687158 77.4238313 -76.35642916 79.6958115 -89.125 82 C-90.08365967 82.17364075 -91.04231934 82.34728149 -92.0300293 82.52618408 C-108.96378027 85.57955237 -125.87721035 88.23183348 -143 90 C-144.09892578 90.11569336 -145.19785156 90.23138672 -146.33007812 90.35058594 C-162.17238074 91.94047753 -177.96754572 92.17757314 -193.875 92.1875 C-194.83104126 92.18858765 -195.78708252 92.18967529 -196.77209473 92.1907959 C-199.51220606 92.19044186 -202.25211122 92.18130736 -204.9921875 92.16796875 C-205.81288727 92.16675522 -206.63358704 92.16554169 -207.47915649 92.16429138 C-211.7604603 92.12942971 -215.78341681 91.84694944 -220 91 C-220 87.37 -220 83.74 -220 80 C-218.70304199 80.01047363 -217.40608398 80.02094727 -216.06982422 80.03173828 C-168.54540937 80.3807575 -122.86138981 77.02215052 -76.25531006 67.45898438 C-74.69172328 67.14077451 -73.12688157 66.8286932 -71.56109619 66.52148438 C-69.10669124 66.03869397 -66.65680575 65.53695277 -64.20703125 65.03125 C-63.45870529 64.88755981 -62.71037933 64.74386963 -61.93937683 64.5958252 C-57.28970969 63.60892506 -54.54486263 62.10827037 -51 59 C-48.38637241 58.25283715 -46.03746573 57.71704645 -43.375 57.3125 C-42.64804932 57.19221436 -41.92109863 57.07192871 -41.17211914 56.94799805 C-32.500277 55.6129484 -23.75880322 55.2788203 -15 55 C-14.67 56.32 -14.34 57.64 -14 59 C-11.525 58.505 -11.525 58.505 -9 58 C-8.37361587 55.2086377 -7.74886904 52.41692459 -7.125 49.625 C-6.95097656 48.85027344 -6.77695313 48.07554687 -6.59765625 47.27734375 C-6.05676082 44.8533309 -5.52854506 42.42673218 -5 40 C-4.82122314 39.22027832 -4.64244629 38.44055664 -4.45825195 37.63720703 C-2.93725938 30.67135829 -2.40021223 23.73065039 -1.9375 16.625 C-1.78308119 14.3253083 -1.62565858 12.02581579 -1.46484375 9.7265625 C-1.399021 8.72189941 -1.33319824 7.71723633 -1.26538086 6.68212891 C-1.03456781 4.34936702 -0.64471727 2.24798774 0 0 Z " fill="#BAD7F3" transform="translate(220,546)"/>
<path d="M0 0 C2.26718725 2.26718725 2.40498868 3.10493753 2.96142578 6.17431641 C3.12144073 7.03505768 3.28145569 7.89579895 3.44631958 8.78262329 C3.61098724 9.71287323 3.77565491 10.64312317 3.9453125 11.6015625 C4.12005096 12.55316254 4.29478943 13.50476257 4.474823 14.48519897 C5.03226591 17.53050687 5.57874385 20.57766762 6.125 23.625 C6.50058261 25.68763114 6.8768757 27.75013304 7.25390625 29.8125 C8.17752731 34.87353622 9.09131809 39.93626112 10 45 C11.37551025 45.03758423 11.37551025 45.03758423 12.77880859 45.07592773 C16.22681775 45.17186288 19.67470367 45.27103983 23.12255859 45.37231445 C24.60624631 45.4152523 26.08997051 45.45695012 27.57373047 45.49731445 C41.49845721 45.87759189 41.49845721 45.87759189 46.875 46.50390625 C54.74914478 47.39233499 62.70993016 47.33551904 70.625 47.5 C87.4923409 47.85506698 104.08228861 48.54841523 120.8125 50.9375 C130.04257647 52.21499941 139.26008816 53.44601438 148.53833008 54.31616211 C156.5870533 55.09017261 164.57201477 56.35463054 172.57128906 57.52050781 C195.72702688 60.82309884 218.62798208 61.78975153 242 62 C242 65.63 242 69.26 242 73 C217.0193487 74.11053592 192.69216605 72.56300058 167.9375 69.25 C167.2542503 69.15864525 166.5710006 69.0672905 165.86704636 68.97316742 C158.56420044 67.99382035 151.26542477 66.98664633 143.96826172 65.96582031 C135.32324727 64.75944405 126.66702587 63.66018832 118 62.625 C116.73406006 62.47353516 115.46812012 62.32207031 114.16381836 62.16601562 C84.05783744 57.40917498 84.05783744 57.40917498 54.16357422 59.47607422 C50.92262021 60.26089563 47.65041573 60.37524483 44.33203125 60.55078125 C43.5512471 60.59262039 42.77046295 60.63445953 41.96601868 60.67756653 C31.98420294 61.16015472 21.99767926 61.18604007 12.00610352 61.18530273 C8.70250565 61.18749006 5.39924244 61.20572921 2.09570312 61.22460938 C-38.43801556 61.3319119 -38.43801556 61.3319119 -51 56 C-52.33203125 53.8984375 -52.33203125 53.8984375 -53 52 C-47.07630448 49.04637959 -41.54545592 48.16082799 -35 47.4375 C-33.96359375 47.31528076 -32.9271875 47.19306152 -31.859375 47.06713867 C-20.92839125 45.81050459 -9.96836025 44.86193237 1 44 C1.22962476 39.91758034 1.42966904 35.83419275 1.625 31.75 C1.68945312 30.61046875 1.75390625 29.4709375 1.8203125 28.296875 C2.12793974 21.5290758 1.81538473 15.37071341 0.45068359 8.72753906 C-0.03705684 5.77573186 -0.07194458 2.98652397 0 0 Z " fill="#BAD7F3" transform="translate(558,565)"/>
<path d="M0 0 C2.33837891 -0.34057617 2.33837891 -0.34057617 5.2265625 -0.29296875 C6.7734375 -0.2784668 6.7734375 -0.2784668 8.3515625 -0.26367188 C9.43179688 -0.23853516 10.51203125 -0.21339844 11.625 -0.1875 C12.71296875 -0.17396484 13.8009375 -0.16042969 14.921875 -0.14648438 C17.61507409 -0.11104754 20.30729374 -0.06164331 23 0 C21.63011359 3.54683904 20.08966195 6.94247058 18.38623047 10.34106445 C17.86584198 11.3817659 17.34545349 12.42246735 16.80929565 13.4947052 C16.25089996 14.6063353 15.69250427 15.71796539 15.1171875 16.86328125 C14.54292023 18.01040085 13.96865295 19.15752045 13.37698364 20.33940125 C11.85644624 23.37667326 10.33350943 26.41273587 8.81005859 29.44854736 C7.25342324 32.55155566 5.6990756 35.6557094 4.14453125 38.75976562 C1.09858372 44.84096289 -1.9501129 50.9207776 -5 57 C0.94 57.33 6.88 57.66 13 58 C13 51.73 13 45.46 13 39 C20.26 39 27.52 39 35 39 C35 45.27 35 51.54 35 58 C37.97 58 40.94 58 44 58 C44 64.6 44 71.2 44 78 C40.7 78 37.4 78 34 78 C34 82.95 34 87.9 34 93 C27.07 93 20.14 93 13 93 C13 88.05 13 83.1 13 78 C-0.86 78 -14.72 78 -29 78 C-29 53.86286754 -29 53.86286754 -23.1640625 43.2421875 C-22.56951263 42.08042999 -21.97496277 40.91867249 -21.36239624 39.72171021 C-19.81208322 36.69410258 -18.21284523 33.69542947 -16.60040283 30.70056152 C-14.95893515 27.62839468 -13.36917749 24.52967983 -11.7734375 21.43359375 C-3.04761314 4.5714197 -3.04761314 4.5714197 0 0 Z " fill="#0468C4" transform="translate(474,81)"/>
<path d="M0 0 C0.9583374 0.00523682 1.9166748 0.01047363 2.90405273 0.01586914 C4.45576172 0.02070312 4.45576172 0.02070312 6.03881836 0.02563477 C7.12743164 0.03401367 8.21604492 0.04239258 9.33764648 0.05102539 C10.97636719 0.05779297 10.97636719 0.05779297 12.64819336 0.06469727 C15.35723144 0.07652713 18.06616248 0.09300996 20.77514648 0.11352539 C11.61007612 19.71093512 1.98234698 39.03777364 -8.22485352 58.11352539 C-2.28485352 58.11352539 3.65514648 58.11352539 9.77514648 58.11352539 C9.77514648 51.84352539 9.77514648 45.57352539 9.77514648 39.11352539 C17.03514648 39.11352539 24.29514648 39.11352539 31.77514648 39.11352539 C31.77514648 45.38352539 31.77514648 51.65352539 31.77514648 58.11352539 C35.07514648 58.11352539 38.37514648 58.11352539 41.77514648 58.11352539 C41.77514648 64.71352539 41.77514648 71.31352539 41.77514648 78.11352539 C38.47514648 78.11352539 35.17514648 78.11352539 31.77514648 78.11352539 C31.77514648 83.06352539 31.77514648 88.01352539 31.77514648 93.11352539 C24.84514648 93.11352539 17.91514648 93.11352539 10.77514648 93.11352539 C10.77514648 88.16352539 10.77514648 83.21352539 10.77514648 78.11352539 C-3.08485352 78.11352539 -16.94485352 78.11352539 -31.22485352 78.11352539 C-33.11577203 59.58252393 -28.31989189 48.26601247 -19.36634827 32.67832947 C-15.56755589 26.0499882 -12.21057329 19.22143602 -8.84985352 12.36352539 C-7.78204853 10.2008272 -6.71197335 8.03924737 -5.63891602 5.87915039 C-5.19499512 4.97970703 -4.75107422 4.08026367 -4.29370117 3.15356445 C-2.71399549 0.13848435 -2.71399549 0.13848435 0 0 Z " fill="#0469C4" transform="translate(316.224853515625,80.886474609375)"/>
<path d="M0 0 C1.25619392 -0.01226624 1.25619392 -0.01226624 2.5377655 -0.02478027 C5.32318396 -0.04969227 8.10855111 -0.06616857 10.89404297 -0.08056641 C11.84422176 -0.08589008 12.79440056 -0.09121376 13.77337265 -0.09669876 C18.80642644 -0.12346063 23.8394552 -0.1428223 28.87255859 -0.15722656 C34.06798147 -0.17384575 39.26276645 -0.21859188 44.45794868 -0.26959801 C48.45403758 -0.30329434 52.4499759 -0.31480688 56.4461937 -0.32045364 C58.36072516 -0.32716382 60.27524681 -0.34237982 62.18964005 -0.36634445 C64.8756477 -0.39803866 67.55994743 -0.39802613 70.24609375 -0.390625 C71.03287003 -0.40703033 71.8196463 -0.42343567 72.63026428 -0.44033813 C78.36309364 -0.37591249 81.80057395 1.31983728 86.01123047 5.19287109 C88.94048693 8.68908042 89.49424889 11.63655452 89.29638672 16.20458984 C88.6521598 20.6965282 86.78821261 23.47416261 83.51123047 26.50537109 C79.01259626 29.54194918 74.91530337 29.32982509 69.68432617 29.30639648 C68.83532745 29.30654251 67.98632874 29.30668854 67.11160278 29.30683899 C64.30337984 29.30614193 61.49522309 29.29835915 58.68701172 29.29052734 C56.74073828 29.28866243 54.79446438 29.28723887 52.84819031 29.28623962 C47.7238943 29.28242022 42.59962661 29.27259482 37.4753418 29.26153564 C32.24707421 29.25130915 27.01880205 29.24673935 21.79052734 29.24169922 C11.53074927 29.23097206 1.27099223 29.21390253 -8.98876953 29.19287109 C-9.48637691 27.94284683 -9.97663621 26.68989617 -10.46386719 25.43579102 C-10.73768219 24.73838303 -11.01149719 24.04097504 -11.29360962 23.32243347 C-12.36652429 20.03565199 -12.38497257 16.94379787 -12.36376953 13.50537109 C-12.37150391 12.24337891 -12.37923828 10.98138672 -12.38720703 9.68115234 C-11.38329085 0.8919646 -7.79436002 0.04156049 0 0 Z " fill="#0266C3" transform="translate(307.98876953125,388.80712890625)"/>
<path d="M0 0 C1.50951745 -0.03255215 3.01996873 -0.03196763 4.52960205 -0.00532532 C5.35614288 -0.01423294 6.18268372 -0.02314056 7.03427124 -0.03231812 C9.76691652 -0.05362807 12.49720935 -0.03127344 15.22979736 -0.00654602 C17.13305909 -0.00804868 19.03632019 -0.01147929 20.9395752 -0.01675415 C24.93115984 -0.02108881 28.92193757 -0.00423023 32.91339111 0.02787781 C38.01578492 0.06755159 43.11665619 0.05840293 48.21909714 0.03364277 C52.15185888 0.01941508 56.08426895 0.02958351 60.01700592 0.04715538 C61.89715992 0.05298482 63.77735023 0.05173305 65.65749359 0.04313087 C68.29535423 0.03508509 70.9310357 0.05952349 73.56866455 0.09233093 C74.72234024 0.07950577 74.72234024 0.07950577 75.89932251 0.06642151 C81.77076944 0.1916454 85.71937956 2.12406299 90.30792236 5.75517273 C93.29617737 9.21034258 93.79089025 12.20002291 93.59307861 16.76689148 C92.94433447 21.29032669 91.08310859 24.05561443 87.74542236 27.06767273 C83.44591191 30.04425689 80.09850945 29.89115889 75.00274658 29.86869812 C74.14414032 29.86884415 73.28553406 29.86899017 72.40090942 29.86914062 C69.55478412 29.86844236 66.70872377 29.86065398 63.86260986 29.85282898 C61.89248694 29.85096449 59.92236355 29.84954073 57.95223999 29.84854126 C52.76052577 29.84471849 47.56883942 29.83489024 42.37713623 29.82383728 C37.08193336 29.81361801 31.786726 29.80904253 26.49151611 29.80400085 C16.0969726 29.79326777 5.7024498 29.77619421 -4.69207764 29.75517273 C-5.18868249 28.50430395 -5.67827555 27.25065025 -6.16497803 25.99589539 C-6.43838516 25.29807953 -6.7117923 24.60026367 -6.9934845 23.88130188 C-8.06612434 20.6167825 -8.12603836 17.54910928 -8.12957764 14.13017273 C-8.14891357 12.8797821 -8.16824951 11.62939148 -8.18817139 10.34111023 C-7.40185924 4.65737362 -5.87360286 1.20137904 0 0 Z " fill="#0366C3" transform="translate(303.69207763671875,305.2448272705078)"/>
<path d="M0 0 C8.16899315 -0.21975704 15.88600655 0.31947795 23.9375 1.6875 C25.56147705 1.95759888 25.56147705 1.95759888 27.21826172 2.2331543 C44.64762585 5.22232217 61.41503437 9.88495557 78.27587891 15.15673828 C84.82655426 17.18452396 91.41780405 19.07776579 98 21 C98 28.59 98 36.18 98 44 C92.88459372 43.26922767 89.37501973 42.57036642 84.6875 40.875 C74.27834068 37.24348687 63.58695848 34.58209434 52.93261719 31.77832031 C50.51510264 31.13670889 48.10362488 30.47977163 45.6953125 29.8046875 C30.35473527 25.54155116 14.82507367 22.67975642 -1 21 C-0.83628906 20.34644531 -0.67257812 19.69289063 -0.50390625 19.01953125 C0.12848563 15.23008226 0.10696709 11.51509049 0.0625 7.6875 C0.05798828 6.94693359 0.05347656 6.20636719 0.04882812 5.44335938 C0.03712175 3.62887101 0.01918898 1.81442466 0 0 Z " fill="#0466C3" transform="translate(702,352)"/>
<path d="M0 0 C2 1 4 2 6 3 C7.38938495 3.09502826 8.78315188 3.13072839 10.17578125 3.1328125 C11.00400391 3.13410156 11.83222656 3.13539063 12.68554688 3.13671875 C13.55244141 3.13285156 14.41933594 3.12898437 15.3125 3.125 C16.16779297 3.12886719 17.02308594 3.13273438 17.90429688 3.13671875 C22.06290869 3.13027628 25.94591946 3.05322505 30 2 C31.78370827 5.15693975 32.49645861 7.99025558 33.0625 11.5625 C33.21847656 12.51253906 33.37445313 13.46257813 33.53515625 14.44140625 C34.70615482 23.40594153 35.19376901 32.27328799 35.1875 41.3125 C35.18741943 42.41408447 35.18733887 43.51566895 35.18725586 44.65063477 C35.13956929 51.45676302 34.69180322 57.86252212 33.51171875 64.56640625 C32.45561076 71.65281024 32.30813132 78.8481099 32 86 C28.78360346 87.74565111 26.67986596 88.204437 23 88 C22.16702097 83.00940782 21.9116042 78.24934926 22.04296875 73.1875 C22.06538508 71.68360735 22.08683737 70.17970009 22.10742188 68.67578125 C22.14416003 66.35032876 22.18683796 64.025659 22.24682617 61.70068359 C22.54515969 49.5198171 20.86243491 39.58730473 17 28 C15.76802405 30.46395191 15.77963385 32.28429064 15.640625 35.0390625 C14.66451588 51.69071343 13.53964458 69.43723587 7 85 C5.35 85 3.7 85 2 85 C-0.63399156 77.09802533 -0.09917405 68.19554195 -0.125 59.9375 C-0.12959229 59.10412109 -0.13418457 58.27074219 -0.13891602 57.41210938 C-0.13690186 56.62513672 -0.1348877 55.83816406 -0.1328125 55.02734375 C-0.13168457 54.32343506 -0.13055664 53.61952637 -0.12939453 52.89428711 C0 51 0 51 1 48 C1.4544369 41.5322004 0.96996737 35.27265711 0 28.875 C-0.86290687 22.96316996 -1.19230098 17.22362425 -1.1875 11.25 C-1.18814453 10.4751123 -1.18878906 9.70022461 -1.18945312 8.90185547 C-1.15800197 5.68311529 -1.02441502 3.07324507 0 0 Z " fill="#FEA906" transform="translate(204,520)"/>
<path d="M0 0 C4.14976265 1.38325422 8.16386785 2.8133262 12.21875 4.42578125 C13.39953125 4.89306641 14.5803125 5.36035156 15.796875 5.84179688 C18.23461254 6.80994897 20.67211882 7.77868362 23.109375 8.74804688 C34.68412077 13.32658538 46.29718316 17.77123691 58.3125 21.0625 C59.21822754 21.3114502 60.12395508 21.56040039 61.05712891 21.81689453 C72.20935496 24.75308577 83.5912202 26.40534747 95 28 C94.83757812 29.22332031 94.67515625 30.44664062 94.5078125 31.70703125 C94.13293589 34.71465436 93.86378044 37.65260861 93.875 40.6875 C93.87242188 41.39261719 93.86984375 42.09773438 93.8671875 42.82421875 C94.01728525 45.28317302 94.46969747 47.59680364 95 50 C84.73342592 49.57768702 75.02066541 48.36540268 65 46 C64.19127441 45.8134082 63.38254883 45.62681641 62.54931641 45.43457031 C41.0515436 40.4012187 20.11390599 33.09914795 0 24 C0 16.08 0 8.16 0 0 Z " fill="#0567C3" transform="translate(0,322)"/>
<path d="M0 0 C-0.00523682 1.26706787 -0.01047363 2.53413574 -0.01586914 3.83959961 C-0.03391514 8.5228607 -0.04543053 13.20611871 -0.05493164 17.8894043 C-0.05997278 19.91968298 -0.06680557 21.94995802 -0.07543945 23.98022461 C-0.08751467 26.89177347 -0.09323034 29.8032745 -0.09765625 32.71484375 C-0.10281754 33.6283812 -0.10797882 34.54191864 -0.11329651 35.48313904 C-0.11349168 37.65575427 -0.06211805 39.82827296 0 42 C0.33 42.33 0.66 42.66 1 43 C1.09947504 44.49343936 1.13080287 45.99153398 1.1328125 47.48828125 C1.13474609 48.41753418 1.13667969 49.34678711 1.13867188 50.30419922 C1.13416016 51.29693848 1.12964844 52.28967773 1.125 53.3125 C1.12306641 54.31039551 1.12113281 55.30829102 1.11914062 56.33642578 C1.07854953 63.27186544 0.81431718 70.10738669 0 77 C-2.64 77 -5.28 77 -8 77 C-9.57768221 71.78035024 -10.73672437 66.5824353 -11.7265625 61.22265625 C-11.87910492 60.41130722 -12.03164734 59.59995819 -12.18881226 58.76402283 C-12.67063398 56.19741639 -13.14788861 53.62998577 -13.625 51.0625 C-13.95282241 49.31179227 -14.28094444 47.56114062 -14.609375 45.81054688 C-15.4097157 41.54100513 -16.20596433 37.27071863 -17 33 C-16.85199951 33.99330322 -16.70399902 34.98660645 -16.55151367 36.01000977 C-15.26625327 45.08908138 -14.8127801 53.75447519 -15.3125 62.9375 C-15.36083984 64.09701172 -15.40917969 65.25652344 -15.45898438 66.45117188 C-15.84852698 74.84852698 -15.84852698 74.84852698 -17 76 C-20.5 76.125 -20.5 76.125 -24 76 C-25.77240501 74.22759499 -25.5308348 71.60115516 -25.83203125 69.19140625 C-25.98897461 67.97888184 -26.14591797 66.76635742 -26.30761719 65.51708984 C-26.47422852 64.2120752 -26.64083984 62.90706055 -26.8125 61.5625 C-27.89052005 53.21506008 -29.0728486 45.01689575 -31.25 36.875 C-34.28021544 25.21781649 -33.34559466 12.93896645 -33 1 C-32.01 1.33 -31.02 1.66 -30 2 C-26.96249464 2.22722098 -23.9201457 2.18516477 -20.875 2.1875 C-20.05773437 2.19974609 -19.24046875 2.21199219 -18.3984375 2.22460938 C-13.31877401 2.23666554 -8.74233437 1.683948 -3.81689453 0.4309082 C-2 0 -2 0 0 0 Z " fill="#FEA906" transform="translate(576,534)"/>
<path d="M0 0 C0.77601563 -0.00257813 1.55203125 -0.00515625 2.3515625 -0.0078125 C4.375 0.125 4.375 0.125 6.375 1.125 C6.045 3.765 5.715 6.405 5.375 9.125 C13.32254996 8.50409766 19.70673713 7.29111624 26.125 2.375 C29.375 0.125 29.375 0.125 31.40625 0.25 C35.11422936 1.89799082 36.7119365 5.57178802 38.375 9.125 C38.6875 12.125 38.6875 12.125 38.375 14.125 C37.10808493 14.79908308 35.83629251 15.46400497 34.5625 16.125 C33.85480469 16.49625 33.14710938 16.8675 32.41796875 17.25 C30.375 18.125 30.375 18.125 27.375 18.125 C27.69645996 18.7955542 28.01791992 19.4661084 28.34912109 20.15698242 C29.59132954 23.75087296 29.69820614 26.81245701 29.7890625 30.61328125 C29.80842865 31.31647995 29.8277948 32.01967865 29.8477478 32.7441864 C29.90720183 34.97517019 29.95379049 37.20620654 30 39.4375 C30.03821137 40.95640186 30.07726492 42.47528278 30.1171875 43.99414062 C30.21287416 47.70423467 30.29703072 51.41448651 30.375 55.125 C24.8527786 58.1188499 21.0218307 58.61507787 14.875 58.5625 C13.63169922 58.5924707 13.63169922 58.5924707 12.36328125 58.62304688 C8.47129097 58.61995308 5.52623783 58.17757553 1.82421875 56.890625 C-2.19362618 52.35372833 -1.39330699 47.28469408 -1.3125 41.4375 C-1.27540093 32.0090356 -1.34984061 23.75281494 -6.8125 15.75 C-9.61394269 11.24425757 -8.95810295 6.24183138 -8.625 1.125 C-5.68397771 0.27895249 -3.05733732 -0.01022521 0 0 Z " fill="#91BFE7" transform="translate(204.625,465.875)"/>
<path d="M0 0 C3.3 0 6.6 0 10 0 C9.67 4.29 9.34 8.58 9 13 C11.31 13 13.62 13 16 13 C16.66 8.71 17.32 4.42 18 0 C21.3 0 24.6 0 28 0 C27.34 4.29 26.68 8.58 26 13 C28.64 13 31.28 13 34 13 C33.67 15.97 33.34 18.94 33 22 C30.03 22 27.06 22 24 22 C24 23.98 24 25.96 24 28 C26.64 28.33 29.28 28.66 32 29 C31.505 33.95 31.505 33.95 31 39 C27.7 39 24.4 39 21 39 C20.67 42.96 20.34 46.92 20 51 C16.7 51 13.4 51 10 51 C10.33 47.04 10.66 43.08 11 39 C8.69 39 6.38 39 4 39 C3.90912109 40.04800781 3.90912109 40.04800781 3.81640625 41.1171875 C3.73261719 42.02726563 3.64882812 42.93734375 3.5625 43.875 C3.48128906 44.77992188 3.40007812 45.68484375 3.31640625 46.6171875 C3 49 3 49 2 51 C-1.3 51 -4.6 51 -8 51 C-7.34 47.04 -6.68 43.08 -6 39 C-8.97 39 -11.94 39 -15 39 C-14.67 35.7 -14.34 32.4 -14 29 C-10.7 29 -7.4 29 -4 29 C-3.67 26.69 -3.34 24.38 -3 22 C-5.97 22 -8.94 22 -12 22 C-11.505 17.545 -11.505 17.545 -11 13 C-7.7 13 -4.4 13 -1 13 C-0.67 8.71 -0.34 4.42 0 0 Z " fill="#BBD8F3" transform="translate(94,530)"/>
<path d="M0 0 C3.3 0 6.6 0 10 0 C9.34 4.29 8.68 8.58 8 13 C10.64 13 13.28 13 16 13 C16.144375 11.783125 16.28875 10.56625 16.4375 9.3125 C16.82780953 6.17329623 17.32351856 3.0924866 18 0 C21.3 0 24.6 0 28 0 C27.34 4.29 26.68 8.58 26 13 C28.64 13 31.28 13 34 13 C34.09765625 19.15234375 34.09765625 19.15234375 34 21 C33 22 33 22 30.93359375 22.09765625 C30.10988281 22.08605469 29.28617188 22.07445312 28.4375 22.0625 C27.61121094 22.05347656 26.78492188 22.04445313 25.93359375 22.03515625 C24.97646484 22.01775391 24.97646484 22.01775391 24 22 C23.67 24.31 23.34 26.62 23 29 C25.97 29 28.94 29 32 29 C31.125 37.875 31.125 37.875 30 39 C28.48071962 39.07179964 26.95832518 39.08392007 25.4375 39.0625 C24.61121094 39.05347656 23.78492188 39.04445313 22.93359375 39.03515625 C22.29550781 39.02355469 21.65742187 39.01195312 21 39 C20.93941406 39.78246094 20.87882813 40.56492187 20.81640625 41.37109375 C20.73261719 42.38300781 20.64882813 43.39492188 20.5625 44.4375 C20.48128906 45.44683594 20.40007813 46.45617187 20.31640625 47.49609375 C20 50 20 50 19 51 C17.48071962 51.07179964 15.95832518 51.08392007 14.4375 51.0625 C13.61121094 51.05347656 12.78492188 51.04445313 11.93359375 51.03515625 C11.29550781 51.02355469 10.65742187 51.01195312 10 51 C9.91840426 46.83861737 10.01751476 43.0527516 11 39 C8.36 39 5.72 39 3 39 C3.020625 40.051875 3.04125 41.10375 3.0625 42.1875 C3.01103198 45.32704904 2.73482813 47.96883396 2 51 C-1.3 51 -4.6 51 -8 51 C-7.34 47.04 -6.68 43.08 -6 39 C-8.97 39 -11.94 39 -15 39 C-14.67 35.7 -14.34 32.4 -14 29 C-10.7 29 -7.4 29 -4 29 C-3.67 26.69 -3.34 24.38 -3 22 C-5.97 22 -8.94 22 -12 22 C-11.505 17.545 -11.505 17.545 -11 13 C-7.7 13 -4.4 13 -1 13 C-0.67 8.71 -0.34 4.42 0 0 Z " fill="#BAD8F3" transform="translate(701,530)"/>
<path d="M0 0 C5.50847553 1.83615851 8.37760195 4.97291243 11 10 C14.94718877 19.73503552 14.47248103 34.24183094 10.91015625 43.984375 C8.96007236 48.30301571 7.19477881 51.18537808 3.25 53.875 C-0.68227005 55.2361704 -3.88862888 55.74677599 -8 55 C-13.86034934 51.90396639 -16.96441831 48.25214377 -19 42 C-20.94854045 30.60314112 -21.78361684 17.16184616 -16.25 6.6875 C-11.5346101 1.05522874 -7.20618582 -1.15530033 0 0 Z " fill="#FAFCFD" transform="translate(404,100)"/>
<path d="M0 0 C3.3 0 6.6 0 10 0 C9.85915204 1.79206547 9.71216299 3.58364917 9.5625 5.375 C9.48128906 6.37273437 9.40007812 7.37046875 9.31640625 8.3984375 C9 11 9 11 8 13 C10.64 13 13.28 13 16 13 C16.33 8.71 16.66 4.42 17 0 C20.3 0 23.6 0 27 0 C26.125 9.625 26.125 9.625 25 13 C27.97 13 30.94 13 34 13 C33.67 15.97 33.34 18.94 33 22 C29.7 22 26.4 22 23 22 C23 24.31 23 26.62 23 29 C25.64 29 28.28 29 31 29 C30.67 31.97 30.34 34.94 30 38 C27.03 38 24.06 38 21 38 C20.34 42.29 19.68 46.58 19 51 C15.7 51 12.4 51 9 51 C9.66 46.71 10.32 42.42 11 38 C8.36 38 5.72 38 3 38 C3.01160156 38.60328125 3.02320313 39.2065625 3.03515625 39.828125 C3.04417969 40.62734375 3.05320312 41.4265625 3.0625 42.25 C3.07410156 43.03890625 3.08570313 43.8278125 3.09765625 44.640625 C3 47 3 47 2 51 C-1.3 51 -4.6 51 -8 51 C-7.125 41.375 -7.125 41.375 -6 38 C-8.97 38 -11.94 38 -15 38 C-14.67 35.03 -14.34 32.06 -14 29 C-11.03 28.67 -8.06 28.34 -5 28 C-4.67 26.02 -4.34 24.04 -4 22 C-6.64 22 -9.28 22 -12 22 C-12.125 15.25 -12.125 15.25 -11 13 C-8.03 13 -5.06 13 -2 13 C-1.34 8.71 -0.68 4.42 0 0 Z " fill="#BAD7F3" transform="translate(437,202)"/>
<path d="M0 0 C3.3 0 6.6 0 10 0 C9.34 4.29 8.68 8.58 8 13 C10.64 13 13.28 13 16 13 C16.09087891 11.84371094 16.09087891 11.84371094 16.18359375 10.6640625 C16.26738281 9.66117188 16.35117187 8.65828125 16.4375 7.625 C16.51871094 6.62726563 16.59992187 5.62953125 16.68359375 4.6015625 C17 2 17 2 18 0 C20.97 0 23.94 0 27 0 C26.67 4.29 26.34 8.58 26 13 C28.64 13 31.28 13 34 13 C33.67 15.97 33.34 18.94 33 22 C30.03 22.33 27.06 22.66 24 23 C23.67 24.98 23.34 26.96 23 29 C25.64 29 28.28 29 31 29 C31 31.97 31 34.94 31 38 C27.7 38 24.4 38 21 38 C20.855625 39.588125 20.71125 41.17625 20.5625 42.8125 C20.29191216 45.78896626 19.95027599 48.14917204 19 51 C16.03 51 13.06 51 10 51 C9.92345464 46.48382401 9.89771304 42.40914783 11 38 C8.69 38 6.38 38 4 38 C3.34 42.29 2.68 46.58 2 51 C-1.3 51 -4.6 51 -8 51 C-7.48041715 46.62065881 -6.94324258 42.31196609 -6 38 C-8.97 38 -11.94 38 -15 38 C-14.67 35.03 -14.34 32.06 -14 29 C-10.7 29 -7.4 29 -4 29 C-4 26.69 -4 24.38 -4 22 C-6.64 22 -9.28 22 -12 22 C-12.125 15.25 -12.125 15.25 -11 13 C-8.03 13 -5.06 13 -2 13 C-1.34 8.71 -0.68 4.42 0 0 Z " fill="#BAD7F3" transform="translate(683,237)"/>
<path d="M0 0 C0.99 0 1.98 0 3 0 C3.02708567 1.60407328 3.04643483 3.2082785 3.0625 4.8125 C3.07410156 5.70582031 3.08570313 6.59914063 3.09765625 7.51953125 C3 10 3 10 2 13 C1.82362537 14.35024959 1.68390674 15.70552605 1.5703125 17.0625 C-0.63242274 41.54924122 -0.63242274 41.54924122 -9 51 C-11.88437779 49.70700306 -13.87219421 48.34058637 -16 46 C-16.74765625 46.66128906 -17.4953125 47.32257813 -18.265625 48.00390625 C-19.25046875 48.84824219 -20.2353125 49.69257813 -21.25 50.5625 C-22.71179688 51.83287109 -22.71179688 51.83287109 -24.203125 53.12890625 C-27 55 -27 55 -29.359375 54.77734375 C-31 54 -31 54 -31.6875 52.375 C-32 50 -32 50 -30.5625 47.3125 C-28.59291836 43.13698693 -28.36239275 39.55433747 -29 35 C-30.24622853 31.82462355 -30.24622853 31.82462355 -33 30 C-35.204364 29.77049681 -37.41392173 29.58924067 -39.625 29.4375 C-40.81351563 29.35371094 -42.00203125 29.26992188 -43.2265625 29.18359375 C-44.59941406 29.09271484 -44.59941406 29.09271484 -46 29 C-45.979375 29.804375 -45.95875 30.60875 -45.9375 31.4375 C-46 34 -46 34 -47 35 C-47.30302521 40.05042022 -46.80181149 44.2583908 -45 49 C-43.515 49.495 -43.515 49.495 -42 50 C-41.67 51.65 -41.34 53.3 -41 55 C-45.75 56.125 -45.75 56.125 -48 55 C-48.28875 55.598125 -48.5775 56.19625 -48.875 56.8125 C-50 59 -50 59 -52 62 C-57.31844158 60.5041883 -61.48237618 57.17224888 -65 53 C-67.05143367 48.27524135 -67.47968342 43.9557651 -66 39 C-64.4765625 36.97265625 -64.4765625 36.97265625 -62.625 35.0625 C-59.62100646 31.94985138 -57.88404151 28.88836213 -56 25 C-54.72882324 24.98541748 -53.45764648 24.97083496 -52.14794922 24.95581055 C-47.41768708 24.89770193 -42.6878947 24.82046952 -37.95800781 24.73754883 C-35.9134892 24.70435859 -33.86888026 24.67630837 -31.82421875 24.65356445 C-28.87981794 24.61991007 -25.93624046 24.56758834 -22.9921875 24.51171875 C-22.0825827 24.50532883 -21.17297791 24.4989389 -20.23580933 24.49235535 C-15.02899404 24.37257404 -11.59298674 23.69650745 -7 21 C-6.34 21 -5.68 21 -5 21 C-4.67 16.05 -4.34 11.1 -4 6 C-2.515 5.505 -2.515 5.505 -1 5 C-0.67 3.35 -0.34 1.7 0 0 Z " fill="#F7FAFA" transform="translate(595,430)"/>
<path d="M0 0 C2.26718725 2.26718725 2.40498868 3.10493753 2.96142578 6.17431641 C3.12144073 7.03505768 3.28145569 7.89579895 3.44631958 8.78262329 C3.61098724 9.71287323 3.77565491 10.64312317 3.9453125 11.6015625 C4.12005096 12.55316254 4.29478943 13.50476257 4.474823 14.48519897 C5.03226591 17.53050687 5.57874385 20.57766762 6.125 23.625 C6.50058261 25.68763114 6.8768757 27.75013304 7.25390625 29.8125 C8.17752731 34.87353622 9.09131809 39.93626112 10 45 C11.10730469 45.10828125 12.21460938 45.2165625 13.35546875 45.328125 C17 46 17 46 19.3125 48.75 C19.869375 49.8225 20.42625 50.895 21 52 C21.474375 52.86625 21.94875 53.7325 22.4375 54.625 C23 57 23 57 22.01318359 59.11962891 C19.06756782 61.87091834 16.17499063 61.53598921 12.3515625 61.4609375 C11.5908847 61.46088211 10.83020691 61.46082672 10.04647827 61.46076965 C7.57198047 61.45364864 5.09915388 61.41585644 2.625 61.375 C0.92838982 61.35929894 -0.76822491 61.34408177 -2.46484375 61.3293457 C-39.45489426 60.90029955 -39.45489426 60.90029955 -51 56 C-52.33203125 53.8984375 -52.33203125 53.8984375 -53 52 C-47.07630448 49.04637959 -41.54545592 48.16082799 -35 47.4375 C-33.96359375 47.31528076 -32.9271875 47.19306152 -31.859375 47.06713867 C-20.92839125 45.81050459 -9.96836025 44.86193237 1 44 C1.22962476 39.91758034 1.42966904 35.83419275 1.625 31.75 C1.68945312 30.61046875 1.75390625 29.4709375 1.8203125 28.296875 C2.12793974 21.5290758 1.81538473 15.37071341 0.45068359 8.72753906 C-0.03705684 5.77573186 -0.07194458 2.98652397 0 0 Z " fill="#B7D6F2" transform="translate(558,565)"/>
<path d="M0 0 C0.36538462 5.48076923 0.36538462 5.48076923 -1.1875 7.6875 C-3 9 -3 9 -5.3203125 10.10546875 C-8.96398574 12.6815351 -10.52387613 15.79116404 -12.6875 19.625 C-19.13152776 30.43691575 -27.03636836 36.89169094 -38 43 C-39.98 39.7 -41.96 36.4 -44 33 C-48.87404209 33.97480842 -49.90452834 34.70268271 -53.41015625 37.7890625 C-58.49168784 41.65951653 -64.94273132 41.24723546 -71 41 C-70.91189558 35.62563038 -70.91189558 35.62563038 -70 33 C-66.5625 31.375 -66.5625 31.375 -63 30 C-61.44400279 26.75270148 -61 24.58598102 -61 21 C-58.34771188 19.92474806 -55.71631546 18.90543849 -53 18 C-53 18.99 -53 19.98 -53 21 C-34.23183286 22.63445861 -34.23183286 22.63445861 -17.81542969 15.88183594 C-14.8669542 12.54156303 -12.59898644 9.06814331 -10.4140625 5.171875 C-9 3 -9 3 -6 2 C-5.34 2 -4.68 2 -4 2 C-1 0 -1 0 0 0 Z " fill="#F7FAFA" transform="translate(281,434)"/>
<path d="M0 0 C3.86549197 3.02516763 6.4479661 5.61371928 7.2578125 10.61328125 C7.51880082 16.34632473 6.57893809 20.7399707 2.875 25.25 C0.8314418 27.3848239 -1.25135074 29.44327527 -3.41796875 31.453125 C-5.35737704 33.24023087 -5.35737704 33.24023087 -6.125 36.25 C-10.745 36.25 -15.365 36.25 -20.125 36.25 C-18.97929711 29.37578266 -17.11712417 26.82074872 -11.9375 22.5625 C-9.10852767 20.55609749 -9.10852767 20.55609749 -8.125 18.25 C-7.95829727 15.20826106 -7.95829727 15.20826106 -8.125 12.25 C-9.34190541 10.8215968 -9.34190541 10.8215968 -12.9375 10.875 C-16.54865845 10.88796646 -16.89904543 11.02404543 -19.625 13.75 C-20.12 14.575 -20.615 15.4 -21.125 16.25 C-25.87981646 15.67365861 -29.09548212 13.69931479 -33.125 11.25 C-32.52113871 5.57766366 -29.66290306 3.5075931 -25.4609375 -0.01171875 C-17.48244453 -5.94889161 -8.26304 -4.6273024 0 0 Z " fill="#BAD7F3" transform="translate(673.125,439.75)"/>
<path d="M0 0 C4.2879661 2.50131356 7.33373721 5.91747442 9.5625 10.375 C10.34205652 15.68387859 10.33600885 20.02846505 7.0625 24.4375 C5.90136181 25.75489344 4.73431939 27.06709836 3.5625 28.375 C2.99402344 29.19871094 2.42554688 30.02242187 1.83984375 30.87109375 C-1.06730223 34.82752808 -2.85749067 37.11196745 -7.83984375 37.94140625 C-11.08775075 37.93787975 -14.21565352 37.77281946 -17.4375 37.375 C-16.96641334 30.6129436 -13.56601707 28.29692898 -8.6875 24.03515625 C-5.95003654 20.79867601 -5.68307942 18.54473391 -5.4375 14.375 C-8.70807143 12.19461905 -9.64269469 11.74253245 -13.4375 12.375 C-16.08337234 14.77085286 -16.08337234 14.77085286 -18.4375 17.375 C-21.4375 18.375 -21.4375 18.375 -23.91796875 17.16015625 C-24.81128906 16.59167969 -25.70460937 16.02320313 -26.625 15.4375 C-27.52605469 14.87160156 -28.42710937 14.30570313 -29.35546875 13.72265625 C-30.04253906 13.27792969 -30.72960937 12.83320313 -31.4375 12.375 C-30.14031867 8.51006486 -28.72521467 6.32534996 -25.625 3.6875 C-24.95855469 3.10613281 -24.29210937 2.52476562 -23.60546875 1.92578125 C-16.86425085 -2.89631516 -7.53367072 -3.4374163 0 0 Z " fill="#BAD7F3" transform="translate(216.4375,158.625)"/>
<path d="M0 0 C4.57270526 2.74362316 8.04188284 6.24782817 10.4453125 11.0546875 C10.99456501 17.42601663 10.1399755 21.77805554 6.4453125 27.0546875 C4.46107505 29.23891727 2.41040317 31.28338618 0.25 33.29296875 C-1.75153389 35.12471554 -1.75153389 35.12471554 -3.5546875 38.0546875 C-6.59375 38.34765625 -6.59375 38.34765625 -10.1796875 38.2421875 C-11.36820313 38.21511719 -12.55671875 38.18804687 -13.78125 38.16015625 C-14.69648437 38.12535156 -15.61171875 38.09054688 -16.5546875 38.0546875 C-15.52534324 30.58164815 -12.34582219 27.62663594 -6.5546875 23.0546875 C-4.26455097 19.6194827 -4.37625777 18.0693565 -4.5546875 14.0546875 C-7.44330459 12.61037895 -9.35116451 12.67780244 -12.5546875 13.0546875 C-14.26149697 14.68022033 -15.93128945 16.34584745 -17.5546875 18.0546875 C-21.70144882 18.0546875 -22.86676815 17.576993 -26.3046875 15.5546875 C-27.10390625 15.090625 -27.903125 14.6265625 -28.7265625 14.1484375 C-29.63148438 13.60703125 -29.63148438 13.60703125 -30.5546875 13.0546875 C-29.07291881 6.94239163 -23.80110951 3.14068632 -18.71875 -0.125 C-13.10854325 -2.25161267 -5.58893829 -2.06807808 0 0 Z " fill="#BAD7F3" transform="translate(696.5546875,137.9453125)"/>
<path d="M0 0 C3.96 0 7.92 0 12 0 C12 4.29 12 8.58 12 13 C16.29 13 20.58 13 25 13 C25 17.29 25 21.58 25 26 C20.71 26 16.42 26 12 26 C12 30.29 12 34.58 12 39 C8.04 39 4.08 39 0 39 C0 34.71 0 30.42 0 26 C-4.62 26 -9.24 26 -14 26 C-14 22.04 -14 18.08 -14 14 C-9.38 14 -4.76 14 0 14 C0 9.38 0 4.76 0 0 Z " fill="#BBD8F3" transform="translate(128,453)"/>
<path d="M0 0 C3.96 0 7.92 0 12 0 C12 4.62 12 9.24 12 14 C16.29 14 20.58 14 25 14 C25 17.96 25 21.92 25 26 C20.71 26 16.42 26 12 26 C12 30.62 12 35.24 12 40 C8.04 40 4.08 40 0 40 C0 35.38 0 30.76 0 26 C-4.62 26 -9.24 26 -14 26 C-14 22.04 -14 18.08 -14 14 C-9.38 14 -4.76 14 0 14 C0 9.38 0 4.76 0 0 Z " fill="#BBD8F3" transform="translate(128,231)"/>
<path d="M0 0 C3.96 0 7.92 0 12 0 C12 4.29 12 8.58 12 13 C16.29 13 20.58 13 25 13 C25 16.96 25 20.92 25 25 C20.71 25 16.42 25 12 25 C12 29.62 12 34.24 12 39 C8.04 39 4.08 39 0 39 C0 34.38 0 29.76 0 25 C-4.62 25 -9.24 25 -14 25 C-14 21.04 -14 17.08 -14 13 C-9.38 13 -4.76 13 0 13 C0 8.71 0 4.42 0 0 Z " fill="#BAD7F3" transform="translate(361,238)"/>
<path d="M0 0 C4.29 0 8.58 0 13 0 C13 4.29 13 8.58 13 13 C17.29 13 21.58 13 26 13 C26 16.96 26 20.92 26 25 C21.38 25 16.76 25 12 25 C12 29.62 12 34.24 12 39 C8.37 39 4.74 39 1 39 C1 34.38 1 29.76 1 25 C-3.62 25 -8.24 25 -13 25 C-13 21.04 -13 17.08 -13 13 C-8.71 13 -4.42 13 0 13 C0 8.71 0 4.42 0 0 Z " fill="#BAD8F3" transform="translate(603,177)"/>
<path d="M0 0 C0.66 0 1.32 0 2 0 C2.51046875 1.32451172 2.51046875 1.32451172 3.03125 2.67578125 C7.30828943 13.26600388 11.95704659 24.16870788 23 29 C23 29.33 23 29.66 23 30 C19.1672557 30.17577261 15.33556007 30.28134097 11.5 30.375 C10.42234375 30.42527344 9.3446875 30.47554688 8.234375 30.52734375 C1.60851432 30.64854852 -2.33801849 30.00268648 -7.39648438 25.59228516 C-7.92564453 25.06683105 -8.45480469 24.54137695 -9 24 C-9.58587891 23.52224121 -10.17175781 23.04448242 -10.77539062 22.55224609 C-12 21 -12 21 -11.81225586 19.03759766 C-11.01063034 17.02666691 -10.12240396 15.25097286 -9.00390625 13.3984375 C-8.61009766 12.74359375 -8.21628906 12.08875 -7.81054688 11.4140625 C-7.39869141 10.74117188 -6.98683594 10.06828125 -6.5625 9.375 C-6.15451172 8.694375 -5.74652344 8.01375 -5.32617188 7.3125 C-3.70801594 4.64109085 -2.21686721 2.21686721 0 0 Z " fill="#0781DB" transform="translate(274,444)"/>
<path d="M0 0 C-1.77989724 4.18189449 -3.84546798 5.19368173 -8 7 C-7.42655063 9.86724686 -7.1385485 10.8614515 -5 13 C-2.33757179 13.46290221 -2.33757179 13.46290221 0.625 13.625 C1.62789062 13.69976563 2.63078125 13.77453125 3.6640625 13.8515625 C4.43492187 13.90054688 5.20578125 13.94953125 6 14 C6 14.33 6 14.66 6 15 C-31.15490782 15.87652469 -31.15490782 15.87652469 -45 10 C-46.33203125 7.8984375 -46.33203125 7.8984375 -47 6 C-40.9699258 2.98073424 -35.22759571 2.07997358 -28.5625 1.3125 C-27.50804687 1.18512451 -26.45359375 1.05774902 -25.3671875 0.92651367 C-16.86910061 -0.03806059 -8.54480424 -0.33927899 0 0 Z " fill="#BBD8F3" transform="translate(552,611)"/>
<path d="M0 0 C2.08218362 -0.10832169 4.16599129 -0.18573541 6.25 -0.25 C7.99023438 -0.31960938 7.99023438 -0.31960938 9.765625 -0.390625 C13 0 13 0 15.359375 1.890625 C18.60435332 6.06273999 18.53112939 9.8541398 18 15 C17.01577854 17.00781177 16.01765927 19.00892752 15 21 C15.21107293 24.27885532 15.21107293 24.27885532 16 27 C13.73262056 29.01544839 12.42714016 29.94914998 9.375 30.3125 C7 30 7 30 5 28 C4.690625 26.865625 4.38125 25.73125 4.0625 24.5625 C3.01844392 21.06184139 2.52596525 20.31546814 0 18 C-2.14176293 13.94192287 -2.31909778 10.5471433 -2 6 C-1.36632586 3.98930322 -0.70427717 1.98706772 0 0 Z " fill="#F7A768" transform="translate(549,459)"/>
<path d="M0 0 C2.69767479 2.69767479 3.05992728 5.20779484 4.0625 8.875 C4.40410156 10.10992188 4.74570313 11.34484375 5.09765625 12.6171875 C5.39542969 13.73351562 5.69320312 14.84984375 6 16 C6.20238281 16.68449219 6.40476563 17.36898437 6.61328125 18.07421875 C8.93977278 29.65967658 6.63160387 43.26493447 6 55 C5.01 55 4.02 55 3 55 C2.505 53.515 2.505 53.515 2 52 C-1.67986596 51.795563 -3.78360346 52.25434889 -7 54 C-6.71210612 51.87448558 -6.41945627 49.74961525 -6.125 47.625 C-5.96257812 46.44164062 -5.80015625 45.25828125 -5.6328125 44.0390625 C-5.2067317 41.11245426 -4.62689475 38.24832028 -3.99609375 35.359375 C-2.72934116 29.15914101 -2.34809855 22.93036551 -1.9375 16.625 C-1.78308119 14.3253083 -1.62565858 12.02581579 -1.46484375 9.7265625 C-1.399021 8.72189941 -1.33319824 7.71723633 -1.26538086 6.68212891 C-1.03456781 4.34936702 -0.64471727 2.24798774 0 0 Z " fill="#FDFAF4" transform="translate(220,546)"/>
<path d="M0 0 C0.36538462 5.48076923 0.36538462 5.48076923 -1.1875 7.6875 C-3 9 -3 9 -5.3203125 10.10546875 C-8.96398574 12.6815351 -10.52387613 15.79116404 -12.6875 19.625 C-19.13152776 30.43691575 -27.03636836 36.89169094 -38 43 C-39.65 39.7 -41.3 36.4 -43 33 C-32.13157895 26 -32.13157895 26 -27 26 C-26.80277344 25.3090625 -26.60554688 24.618125 -26.40234375 23.90625 C-24.49809905 19.95984872 -21.72428781 17.478646 -18.5625 14.5 C-14.70763133 10.84444797 -11.72315024 7.59687748 -9 3 C-6 2 -6 2 -4 2 C-1 0 -1 0 0 0 Z " fill="#F9AA6C" transform="translate(281,434)"/>
<path d="M0 0 C1.46184058 0.22860058 2.91955419 0.48370392 4.375 0.75 C5.59316406 0.95882813 5.59316406 0.95882813 6.8359375 1.171875 C9 2 9 2 10.1027832 3.59423828 C12.0068488 8.69972466 11.58521929 14.45705964 11.74291992 19.86376953 C11.81250219 22.12507127 11.90838821 24.38428048 12.00585938 26.64453125 C12.05368545 28.07807245 12.09996317 29.51166632 12.14453125 30.9453125 C12.18940674 32.25000488 12.23428223 33.55469727 12.28051758 34.89892578 C12.18794678 35.92228027 12.09537598 36.94563477 12 38 C8.3558226 40.4294516 6.28758728 40.16179575 2 40 C0.16049742 34.59646117 -0.50030131 29.71274291 0 24 C0.33 23.34 0.66 22.68 1 22 C1.36070374 14.60557329 0.99354341 7.32738263 0 0 Z " fill="#3C88CC" transform="translate(223,483)"/>
<path d="M0 0 C0.71281198 6.05890183 0.71281198 6.05890183 -1.1953125 8.578125 C-4.33804155 11.32603885 -5.75947002 12 -10 12 C-9.773125 12.721875 -9.54625 13.44375 -9.3125 14.1875 C-8.90922758 17.81695175 -9.82857328 19.13061469 -12 22 C-15 24 -15 24 -17.5 23.9375 C-20.88116168 22.66956437 -21.4367886 21.21104108 -23 18 C-23.80504293 12.54601547 -23.95197117 7.61835099 -21.125 2.8125 C-17.64785232 -0.15330244 -15.13830949 -0.2700206 -10.625 -0.625 C-9.48289063 -0.72039062 -8.34078125 -0.81578125 -7.1640625 -0.9140625 C-4.45995988 -0.98750726 -2.54015001 -0.83837463 0 0 Z " fill="#0769BE" transform="translate(230,443)"/>
<path d="M0 0 C4.28604696 2.04652823 8.06641418 4.18219829 11 8 C11.87375729 11.39540311 11.71311822 14.58198396 11.5 18.0625 C11.45105591 19.47728638 11.45105591 19.47728638 11.40112305 20.9206543 C11.33007311 22.7896045 11.24291729 24.65802516 11.13818359 26.52539062 C11.02852889 28.48910098 10.96842946 30.45556789 10.92578125 32.421875 C10.54974373 42.01731517 8.25496966 51.45329445 6.25390625 60.81640625 C6.06127197 61.71818604 5.8686377 62.61996582 5.67016602 63.54907227 C5.02546625 65.90686496 4.17470158 67.86375461 3 70 C2.91172316 63.36942839 2.8477952 56.7922219 3.5 50.1875 C3.96686019 45.1602954 4.14417619 40.17059966 4.1875 35.125 C4.20039063 34.41110107 4.21328125 33.69720215 4.2265625 32.96166992 C4.23492213 28.51277859 3.39425092 25.17760791 2 21 C1.47744935 17.38747426 1.1756107 13.76189666 0.875 10.125 C0.78863281 9.15046875 0.70226562 8.1759375 0.61328125 7.171875 C0.40238659 4.78173554 0.19815363 2.39122375 0 0 Z " fill="#F47407" transform="translate(208,534)"/>
<path d="M0 0 C0.99 0 1.98 0 3 0 C3.02708567 1.60407328 3.04643483 3.2082785 3.0625 4.8125 C3.07410156 5.70582031 3.08570313 6.59914063 3.09765625 7.51953125 C3 10 3 10 2 13 C1.82362537 14.35024959 1.68390674 15.70552605 1.5703125 17.0625 C-0.63242274 41.54924122 -0.63242274 41.54924122 -9 51 C-12.36748512 49.48052501 -13.60840337 48.47899158 -15 45 C-13.71937515 43.2925002 -12.38232443 41.62626404 -11 40 C-10.34 40 -9.68 40 -9 40 C-9.04640625 39.41734375 -9.0928125 38.8346875 -9.140625 38.234375 C-9.42190253 31.84535685 -8.14967956 27.08305039 -5.95703125 21.1171875 C-4.43312134 16.15359523 -4.1831682 11.16534313 -4 6 C-3.01 5.67 -2.02 5.34 -1 5 C-0.67 3.35 -0.34 1.7 0 0 Z " fill="#F9AC70" transform="translate(595,430)"/>
<path d="M0 0 C2.08218362 -0.10832169 4.16599129 -0.18573541 6.25 -0.25 C7.99023438 -0.31960938 7.99023438 -0.31960938 9.765625 -0.390625 C13 0 13 0 15.359375 1.890625 C18.60972921 6.06965184 18.51768917 9.84899275 18 15 C16.5 18.5625 16.5 18.5625 15 21 C14.34 21 13.68 21 13 21 C12.82057837 17.05272412 12.90649311 14.4019487 15 11 C14.360625 10.87625 13.72125 10.7525 13.0625 10.625 C9.02988724 9.8020178 5.01576093 8.90114025 1 8 C1.14168137 9.43791516 1.28851043 10.8753237 1.4375 12.3125 C1.51871094 13.11300781 1.59992187 13.91351563 1.68359375 14.73828125 C1.95265693 17.16087179 1.95265693 17.16087179 3 20 C2.34 20 1.68 20 1 20 C-1.94867776 13.97978292 -3.0869612 9.4274677 -0.98046875 2.78515625 C-0.65691406 1.86605469 -0.33335937 0.94695312 0 0 Z " fill="#12365B" transform="translate(549,459)"/>
<path d="M0 0 C3 1 3 1 4.16870117 2.78930664 C5.60196961 6.60083255 5.32777195 10.40875932 5.3125 14.4375 C5.32861328 15.28376953 5.34472656 16.13003906 5.36132812 17.00195312 C5.36512324 21.84831975 5.09305853 25.0255422 2 29 C0.125 28.875 0.125 28.875 -2 28 C-4.02770769 23.35405921 -4.33583788 18.93647466 -4.3125 13.9375 C-4.33666992 12.89625977 -4.33666992 12.89625977 -4.36132812 11.83398438 C-4.36557843 7.35841705 -3.68003557 4.58921219 -1 1 C-0.67 0.67 -0.34 0.34 0 0 Z " fill="#0166C4" transform="translate(495,306)"/>
<path d="M0 0 C0.11214844 0.94101562 0.22429688 1.88203125 0.33984375 2.8515625 C1.3247062 10.20587615 1.3247062 10.20587615 5.203125 16.265625 C7.4208831 17.70228591 9.58317892 18.93599072 12 20 C10.79618552 22.49361571 9.54571278 24.68143083 8 27 C2.68155842 25.5041883 -1.48237618 22.17224888 -5 18 C-6.70652461 14.06961851 -7.0638257 10.43607821 -6.875 6.1875 C-5.58788806 2.96972016 -3.69706256 0 0 0 Z " fill="#FBAC70" transform="translate(535,465)"/>
<path d="M0 0 C1.875 0.25 1.875 0.25 4 1 C6.83016697 4.79341678 6.330736 9.35976633 6.3125 13.875 C6.32861328 14.66519531 6.34472656 15.45539063 6.36132812 16.26953125 C6.36549343 21.27623099 5.67221421 24.61446639 3 29 C1.125 28.875 1.125 28.875 -1 28 C-3.01682601 23.37191504 -3.33589878 18.97926035 -3.3125 14 C-3.32861328 13.31421875 -3.34472656 12.6284375 -3.36132812 11.921875 C-3.36582996 7.20394966 -2.39357189 4.04191559 0 0 Z " fill="#0166C3" transform="translate(494,389)"/>
<path d="M0 0 C3.32274404 2.45594125 4.77618008 3.9256644 5.625 8 C4.76936783 12.10703441 3.38121991 13.55401113 0 16 C-3.95779649 16.62491523 -6.00863886 16.61006839 -9.4375 14.5 C-11.33241448 11.46813683 -11.64036692 9.43919544 -11.44921875 5.90625 C-11 4 -11 4 -8.875 1.5 C-5.46714413 -0.27801176 -3.78454468 -0.70960213 0 0 Z " fill="#BBD8F3" transform="translate(663,482)"/>
<path d="M0 0 C2.61947644 2.41797825 3.7805279 4.02456844 4.5625 7.5 C3.70434938 11.31400276 2.13218386 12.71611593 -1 15 C-3.96399377 15.61701816 -5.90423556 15.39945348 -9 15 C-11.15620733 13.41976586 -11.88899766 12.50228557 -12.46875 9.87890625 C-12.52426701 5.76370783 -12.54853806 3.69813934 -9.9375 0.375 C-6.05118362 -1.44412682 -4.0801632 -1.26114135 0 0 Z " fill="#BBD8F3" transform="translate(691,183)"/>
<path d="M0 0 C2.4375 1.5 2.4375 1.5 4 4 C4.61014545 6.8089715 4.65360928 9.19636021 4 12 C1.9375 14.5625 1.9375 14.5625 -1 16 C-5.26438773 16.07481382 -7.23718151 15.64839572 -10.5 12.875 C-12.48799759 9.06467129 -12.20899436 7.08035596 -11 3 C-7.92160879 -0.67038952 -4.56677188 -0.57084649 0 0 Z " fill="#BBD8F3" transform="translate(209,203)"/>
<path d="M0 0 C2.26363522 2.26363522 2.40392294 3.09540323 2.96142578 6.15844727 C3.12144073 7.01596085 3.28145569 7.87347443 3.44631958 8.75697327 C3.61098724 9.68408615 3.77565491 10.61119904 3.9453125 11.56640625 C4.12005096 12.51563461 4.29478943 13.46486298 4.474823 14.44285583 C5.03225066 17.481444 5.57861928 20.5219081 6.125 23.5625 C6.50060203 25.61666459 6.87689543 27.67070289 7.25390625 29.72460938 C7.93917303 33.4726522 8.62269594 37.22098061 9.29736328 40.97094727 C9.43345001 41.72658463 9.56953674 42.48222198 9.70974731 43.26075745 C10 45 10 45 10 46 C6.7 46 3.4 46 0 46 C0.33 45.34 0.66 44.68 1 44 C1.40239807 39.88650545 1.51679442 35.75379893 1.6875 31.625 C1.74744141 30.49449219 1.80738281 29.36398437 1.86914062 28.19921875 C2.15031207 21.47421401 1.79860872 15.33189059 0.44848633 8.73193359 C-0.0362872 5.7789582 -0.07170076 2.98725679 0 0 Z " fill="#FBF0DF" transform="translate(558,565)"/>
<path d="M0 0 C0.66 0 1.32 0 2 0 C1.69147815 1.958964 1.3780582 3.91715713 1.0625 5.875 C0.80146484 7.51082031 0.80146484 7.51082031 0.53515625 9.1796875 C0 12 0 12 -1 14 C-2.65 14 -4.3 14 -6 14 C-5.34 16.31 -4.68 18.62 -4 21 C-7.20380017 23.13586678 -8.01939967 23.23132175 -11.6875 23.125 C-12.89986328 23.09792969 -12.89986328 23.09792969 -14.13671875 23.0703125 C-14.75160156 23.04710937 -15.36648437 23.02390625 -16 23 C-15.91189558 17.62563038 -15.91189558 17.62563038 -15 15 C-11.5625 13.375 -11.5625 13.375 -8 12 C-6.44400279 8.75270148 -6 6.58598102 -6 3 C-5.195625 2.690625 -4.39125 2.38125 -3.5625 2.0625 C-1.10919595 1.23664655 -1.10919595 1.23664655 0 0 Z " fill="#F9A564" transform="translate(226,452)"/>
<path d="M0 0 C0.33 1.65 0.66 3.3 1 5 C-12.37047354 14.1810585 -12.37047354 14.1810585 -16.25 13.75 C-17.51787979 13.20662295 -18.7662163 12.61689185 -20 12 C-20 10.02 -20 8.04 -20 6 C-18.1128125 5.5978125 -18.1128125 5.5978125 -16.1875 5.1875 C-12.91346587 4.38051976 -11.1855546 3.64567136 -9 1 C-5.8035914 -0.06546953 -3.34252724 -0.07427838 0 0 Z " fill="#569DDB" transform="translate(247,602)"/>
<path d="M0 0 C0.0809723 2.43816585 0.14046972 4.87364384 0.1875 7.3125 C0.22520508 8.34793945 0.22520508 8.34793945 0.26367188 9.40429688 C0.33752531 14.50018376 0.33752531 14.50018376 -1.32421875 16.9609375 C-3.92463428 18.57331636 -6.01624842 18.31080746 -9 18 C-9.99 17.34 -10.98 16.68 -12 16 C-12 15.34 -12 14.68 -12 14 C-9.03 14.33 -6.06 14.66 -3 15 C-3 14.01 -3 13.02 -3 12 C-3.928125 12.061875 -4.85625 12.12375 -5.8125 12.1875 C-9 12 -9 12 -10.875 10.875 C-12.55468045 8.07553259 -12.45742277 6.20195936 -12 3 C-8.7812796 -2.23042065 -5.38109977 -1.07621995 0 0 Z " fill="#3185CE" transform="translate(355,522)"/>
<path d="M0 0 C3.53967319 0 6.55478854 0.25104099 10 1 C12 3 12 3 12.3125 6.9375 C12.23330121 9.49981382 12.11578846 10.78772116 10.875 13.0625 C8.06457284 14.46771358 5.96791942 13.72549141 3 13 C2.67 14.98 2.34 16.96 2 19 C1.34 19 0.68 19 0 19 C0 12.73 0 6.46 0 0 Z " fill="#2C83CE" transform="translate(315,521)"/>
<path d="M0 0 C0.66 0 1.32 0 2 0 C2 5.94 2 11.88 2 18 C-5.51953125 18.390625 -5.51953125 18.390625 -8 18 C-10.12628353 15.79975879 -10.90885454 14.52083122 -11.4375 11.5 C-11 9 -11 9 -9.375 6.625 C-7 5 -7 5 -3.75 5.25 C-2.8425 5.4975 -1.935 5.745 -1 6 C-0.67 4.02 -0.34 2.04 0 0 Z " fill="#2680CC" transform="translate(484,516)"/>
<path d="M0 0 C2.32749345 3.49124017 2.50299316 4.89222251 2 9 C0.375 11.4375 0.375 11.4375 -2 13 C-5.6985004 12.85205998 -7.35805573 12.64194427 -10 10 C-10.67973856 2.8627451 -10.67973856 2.8627451 -8.375 -0.0625 C-5.16733041 -1.32868536 -3.2708979 -0.99549067 0 0 Z " fill="#4692D3" transform="translate(440,522)"/>
<path d="M0 0 C3.125 0.375 3.125 0.375 5.5 2.0625 C7.125 4.375 7.125 4.375 7.625 6.875 C7.125 9.375 7.125 9.375 5.5625 11.75 C3.125 13.375 3.125 13.375 -0.5 13.3125 C-3.875 12.375 -3.875 12.375 -5.875 9.375 C-5.26530023 0.68677829 -5.26530023 0.68677829 0 0 Z " fill="#F3F8FB" transform="translate(389.875,496.625)"/>
<path d="M0 0 C4.52451299 1.44399351 4.52451299 1.44399351 5.9375 3.9375 C5.60416667 10.27083333 5.60416667 10.27083333 2.9375 12.9375 C-3.11490175 13.48771834 -3.11490175 13.48771834 -6 11.8125 C-7.59240283 9.00237736 -7.51569325 7.10985276 -7.0625 3.9375 C-4.87947885 0.66296827 -3.97767861 -0.08117711 0 0 Z " fill="#95C0E5" transform="translate(400.0625,521.0625)"/>
<path d="M0 0 C0.8125 2.1875 0.8125 2.1875 1 5 C-2.30308196 9.23207376 -6.19515752 11.76918028 -11 14 C-13.9375 13.75 -13.9375 13.75 -16 13 C-16 11.35 -16 9.7 -16 8 C-14.35 7.67 -12.7 7.34 -11 7 C-10.938125 6.401875 -10.87625 5.80375 -10.8125 5.1875 C-10 3 -10 3 -7.75 1.25 C-4.87860126 -0.05518125 -3.10902534 -0.26648789 0 0 Z " fill="#579DDA" transform="translate(222,597)"/>
<path d="M0 0 C1.98 0 3.96 0 6 0 C6.33 2.31 6.66 4.62 7 7 C-2.66666667 13.44444444 -2.66666667 13.44444444 -7 13 C-7.66 12.34 -8.32 11.68 -9 11 C-9 9.0625 -9 9.0625 -8 7 C-6.00854609 5.98308736 -4.00812926 4.98357352 -2 4 C-0.59533047 1.94906855 -0.59533047 1.94906855 0 0 Z " fill="#4593D9" transform="translate(552,610)"/>
<path d="M0 0 C3.30776928 0.66155386 4.49309977 1.82413303 6.5 4.5 C6.5 5.82 6.5 7.14 6.5 8.5 C2.87 8.5 -0.76 8.5 -4.5 8.5 C-3.51 9.985 -3.51 9.985 -2.5 11.5 C-0.04190002 11.7500773 -0.04190002 11.7500773 2.5 11.5 C3.49 11.5 4.48 11.5 5.5 11.5 C3.76107595 13.69653565 2.86248966 14.43493775 0.0625 14.9375 C-3.37928233 14.34987863 -4.48799381 13.33171242 -6.5 10.5 C-7.11793165 6.79241009 -7.00197249 5.2064798 -4.8125 2.125 C-2.5 0.5 -2.5 0.5 0 0 Z " fill="#398AD0" transform="translate(364.5,520.5)"/>
<path d="M0 0 C3.25 -0.375 3.25 -0.375 7 0 C9.87551526 3.34181504 11.53923831 6.8611752 13 11 C11 13 11 13 8.75 13.125 C4.51920774 11.39422135 2.14565585 7.97425602 0 4 C0 2.68 0 1.36 0 0 Z " fill="#4593D9" transform="translate(568,611)"/>
<path d="M0 0 C1.73956658 1.73956658 1.37190386 4.1936622 1.5625 6.5625 C1.64628906 7.57441406 1.73007812 8.58632813 1.81640625 9.62890625 C1.87699219 10.41136719 1.93757813 11.19382812 2 12 C0.56589632 12.24954005 -0.87260072 12.47392642 -2.3125 12.6875 C-3.11300781 12.81511719 -3.91351563 12.94273437 -4.73828125 13.07421875 C-7 13 -7 13 -8.80859375 11.65234375 C-10 10 -10 10 -9.75 7.875 C-9 6 -9 6 -8 5 C-5.66702567 4.95907063 -3.33294775 4.95758277 -1 5 C-1.33 4.01 -1.66 3.02 -2 2 C-4.31 2 -6.62 2 -9 2 C-9 1.34 -9 0.68 -9 0 C-5.50340123 -1.16553292 -3.55568859 -0.77297578 0 0 Z " fill="#2880CD" transform="translate(339,522)"/>
<path d="M0 0 C3 0 6 0 9 0 C10.65 2.97 12.3 5.94 14 9 C15.32 6.03 16.64 3.06 18 0 C18.66 0.33 19.32 0.66 20 1 C19.10010999 3.46569861 18.18136455 5.92121262 17.25 8.375 C16.99734375 9.07367188 16.7446875 9.77234375 16.484375 10.4921875 C14.49309192 15.6695235 14.49309192 15.6695235 11.796875 17.4765625 C11.20390625 17.64929688 10.6109375 17.82203125 10 18 C10.33 17.34 10.66 16.68 11 16 C11.5964336 9.9163773 10.22889075 6.94423897 7 2 C4.96116112 2.66423207 4.96116112 2.66423207 3 4 C2.3006486 6.18541552 2.3006486 6.18541552 2.25 8.625 C2.19328125 9.44226563 2.1365625 10.25953125 2.078125 11.1015625 C2.05234375 11.72804688 2.0265625 12.35453125 2 13 C1.34 13 0.68 13 0 13 C0 8.71 0 4.42 0 0 Z " fill="#3285CE" transform="translate(408,497)"/>
<path d="M0 0 C0.99 0.33 1.98 0.66 3 1 C3.12117187 1.90363281 3.24234375 2.80726563 3.3671875 3.73828125 C3.53476563 4.91777344 3.70234375 6.09726562 3.875 7.3125 C4.03742188 8.48425781 4.19984375 9.65601563 4.3671875 10.86328125 C4.82300621 14.14530895 4.82300621 14.14530895 7 17 C3.7 16.67 0.4 16.34 -3 16 C-3.37851209 10.06997733 -2.10575375 5.52760359 0 0 Z " fill="#F2A66C" transform="translate(204,450)"/>
<path d="M0 0 C0.66 0 1.32 0 2 0 C1.69147815 1.958964 1.3780582 3.91715713 1.0625 5.875 C0.88847656 6.96554687 0.71445313 8.05609375 0.53515625 9.1796875 C0 12 0 12 -1 14 C-2.98 14 -4.96 14 -7 14 C-8 12 -8 12 -7.0625 9.0625 C-6.711875 8.051875 -6.36125 7.04125 -6 6 C-6 5.01 -6 4.02 -6 3 C-5.195625 2.690625 -4.39125 2.38125 -3.5625 2.0625 C-1.10919595 1.23664655 -1.10919595 1.23664655 0 0 Z " fill="#F0A66D" transform="translate(226,452)"/>
<path d="M0 0 C1.670625 0.37125 1.670625 0.37125 3.375 0.75 C3.705 1.41 4.035 2.07 4.375 2.75 C1.735 2.75 -0.905 2.75 -3.625 2.75 C-3.625 4.07 -3.625 5.39 -3.625 6.75 C-2.51125 7.03875 -1.3975 7.3275 -0.25 7.625 C3.375 8.75 3.375 8.75 5.375 10.75 C5.6875 13.25 5.6875 13.25 5.375 15.75 C1.68782562 18.20811625 -0.26845704 18.06118164 -4.625 17.75 C-5.615 17.09 -6.605 16.43 -7.625 15.75 C-7.625 15.09 -7.625 14.43 -7.625 13.75 C-6.635 14.08 -5.645 14.41 -4.625 14.75 C-2.29200175 14.78954234 0.04208189 14.79401732 2.375 14.75 C2.705 13.43 3.035 12.11 3.375 10.75 C2.73691406 10.61722656 2.09882813 10.48445313 1.44140625 10.34765625 C0.61511719 10.17105469 -0.21117187 9.99445313 -1.0625 9.8125 C-1.88621094 9.63847656 -2.70992188 9.46445312 -3.55859375 9.28515625 C-5.625 8.75 -5.625 8.75 -6.625 7.75 C-6.875 4.8125 -6.875 4.8125 -6.625 1.75 C-3.625 -0.25 -3.625 -0.25 0 0 Z " fill="#2378C9" transform="translate(376.625,492.25)"/>
<path d="M0 0 C5.56818182 0.56818182 5.56818182 0.56818182 7 2 C7.1875 4.9375 7.1875 4.9375 7 8 C5 10 5 10 2.5 10.3125 C1.2625 10.1578125 1.2625 10.1578125 0 10 C-2.14915785 6.77626323 -2.38286803 5.73296326 -2 2 C-1.34 1.34 -0.68 0.68 0 0 Z " fill="#EDF5FA" transform="translate(477,523)"/>
<path d="M0 0 C2.61580479 0.3269756 4.64078137 0.82039068 7 2 C7.1875 4.875 7.1875 4.875 7 8 C4 10 4 10 1.375 9.6875 C-1 9 -1 9 -2 8 C-2.1875 5.0625 -2.1875 5.0625 -2 2 C-1.34 1.34 -0.68 0.68 0 0 Z " fill="#EDF5FA" transform="translate(347,523)"/>
<path d="M0 0 C3.29714793 0.32971479 4.6226839 0.6226839 7 3 C6.625 6.125 6.625 6.125 6 9 C3.125 9.625 3.125 9.625 0 10 C-2 8 -2 8 -2.25 5 C-2 2 -2 2 0 0 Z " fill="#F2F8FB" transform="translate(319,523)"/>
<path d="M0 0 C4.55555556 0.55555556 4.55555556 0.55555556 6 2 C6.1875 4.9375 6.1875 4.9375 6 8 C5.34 8.66 4.68 9.32 4 10 C-0.55555556 9.44444444 -0.55555556 9.44444444 -2 8 C-2.1875 5.0625 -2.1875 5.0625 -2 2 C-1.34 1.34 -0.68 0.68 0 0 Z " fill="#F9FCFD" transform="translate(434,523)"/>
<path d="M0 0 C3.125 0.375 3.125 0.375 5.5 2.0625 C7.125 4.375 7.125 4.375 7.625 6.875 C7.125 9.375 7.125 9.375 5.5625 11.75 C3.125 13.375 3.125 13.375 -0.5 13.3125 C-3.875 12.375 -3.875 12.375 -5.875 9.375 C-5.26530023 0.68677829 -5.26530023 0.68677829 0 0 Z M-2.5625 2.5625 C-4.3124512 4.97909928 -4.24947615 6.45408607 -3.875 9.375 C-2.04796773 11.6241908 -2.04796773 11.6241908 0.625 11.625 C3.29796773 11.6241908 3.29796773 11.6241908 5.125 9.375 C5.49947615 6.45408607 5.5624512 4.97909928 3.8125 2.5625 C1.39913331 0.86420492 -0.14913331 0.86420492 -2.5625 2.5625 Z " fill="#267DCB" transform="translate(389.875,496.625)"/>
<path d="M0 0 C0.66 0 1.32 0 2 0 C2.33 3.63 2.66 7.26 3 11 C4.65 10.67 6.3 10.34 8 10 C8.33 6.7 8.66 3.4 9 0 C9.66 0 10.32 0 11 0 C11 4.29 11 8.58 11 13 C7.7 13 4.4 13 1 13 C-0.32229189 10.35541621 -0.09677194 8.32238699 -0.0625 5.375 C-0.05347656 4.37210938 -0.04445313 3.36921875 -0.03515625 2.3359375 C-0.02355469 1.56507813 -0.01195312 0.79421875 0 0 Z " fill="#2981CD" transform="translate(445,521)"/>
<path d="M0 0 C0.66 0 1.32 0 2 0 C2.66 1.98 3.32 3.96 4 6 C1.68677733 8.05619793 0.44076838 8.95899829 -2.6875 9.25 C-5 9 -5 9 -6 8 C-6.04063832 6.33382885 -6.042721 4.66611905 -6 3 C-5.38125 2.87625 -4.7625 2.7525 -4.125 2.625 C-1.80879168 2.12802644 -1.80879168 2.12802644 0 0 Z " fill="#E69519" transform="translate(561,480)"/>
<path d="M0 0 C2.64 0 5.28 0 8 0 C7.67 2.31 7.34 4.62 7 7 C4.36 7 1.72 7 -1 7 C-0.67 4.69 -0.34 2.38 0 0 Z " fill="#F6FAFC" transform="translate(443,224)"/>
<path d="M0 0 C0.99 0.33 1.98 0.66 3 1 C3.99862699 8.36487404 4.10331031 15.57313685 4 23 C3.67 23 3.34 23 3 23 C0.95062675 15.21726112 -0.49155247 8.06510168 0 0 Z " fill="#F47201" transform="translate(554,547)"/>
<path d="M0 0 C1.134375 0.020625 2.26875 0.04125 3.4375 0.0625 C3.1075 2.3725 2.7775 4.6825 2.4375 7.0625 C0.1275 7.0625 -2.1825 7.0625 -4.5625 7.0625 C-4.60504356 5.06295254 -4.60330783 3.06208364 -4.5625 1.0625 C-3.5625 0.0625 -3.5625 0.0625 0 0 Z " fill="#F8FBFC" transform="translate(711.5625,551.9375)"/>
<path d="M0 0 C1.134375 0.020625 2.26875 0.04125 3.4375 0.0625 C3.1075 2.3725 2.7775 4.6825 2.4375 7.0625 C0.1275 7.0625 -2.1825 7.0625 -4.5625 7.0625 C-4.60504356 5.06295254 -4.60330783 3.06208364 -4.5625 1.0625 C-3.5625 0.0625 -3.5625 0.0625 0 0 Z " fill="#F8FBFC" transform="translate(104.5625,551.9375)"/>
<path d="M0 0 C2.64 0 5.28 0 8 0 C7.67 2.31 7.34 4.62 7 7 C4.36 7 1.72 7 -1 7 C-0.67 4.69 -0.34 2.38 0 0 Z " fill="#F8FBFD" transform="translate(689,259)"/>
<path d="M0 0 C0.66 0 1.32 0 2 0 C2 1.32 2 2.64 2 4 C2.99 4 3.98 4 5 4 C5 4.66 5 5.32 5 6 C4.01 6 3.02 6 2 6 C2 9.3 2 12.6 2 16 C2.99 16.33 3.98 16.66 5 17 C3.35 17 1.7 17 0 17 C0 13.37 0 9.74 0 6 C-0.66 6 -1.32 6 -2 6 C-2 5.34 -2 4.68 -2 4 C-1.34 4 -0.68 4 0 4 C0 2.68 0 1.36 0 0 Z " fill="#3083CD" transform="translate(409,517)"/>
<path d="M0 0 C0.33 0 0.66 0 1 0 C1.0809723 2.43816585 1.14046972 4.87364384 1.1875 7.3125 C1.22520508 8.34793945 1.22520508 8.34793945 1.26367188 9.40429688 C1.33752531 14.50018376 1.33752531 14.50018376 -0.32421875 16.9609375 C-2.92463428 18.57331636 -5.01624842 18.31080746 -8 18 C-8.99 17.34 -9.98 16.68 -11 16 C-11 15.34 -11 14.68 -11 14 C-8.03 14.33 -5.06 14.66 -2 15 C-1.21883684 11.87534738 -0.95333073 9.01517832 -1 5.8125 C-1 2 -1 2 0 0 Z " fill="#0563C0" transform="translate(354,522)"/>
<path d="M0 0 C1.32 0 2.64 0 4 0 C4 0.66 4 1.32 4 2 C2.68 2 1.36 2 0 2 C0 2.99 0 3.98 0 5 C0.99 5 1.98 5 3 5 C3 5.66 3 6.32 3 7 C1.68 7 0.36 7 -1 7 C-1 10.63 -1 14.26 -1 18 C-1.33 18 -1.66 18 -2 18 C-2 14.37 -2 10.74 -2 7 C-2.66 7 -3.32 7 -4 7 C-4 6.34 -4 5.68 -4 5 C-3.34 5 -2.68 5 -2 5 C-1.7834375 4.0409375 -1.7834375 4.0409375 -1.5625 3.0625 C-1 1 -1 1 0 0 Z " fill="#287DCB" transform="translate(426,516)"/>
<path d="M0 0 C0.66 0.33 1.32 0.66 2 1 C1.10010999 3.46569861 0.18136455 5.92121262 -0.75 8.375 C-1.00265625 9.07367188 -1.2553125 9.77234375 -1.515625 10.4921875 C-3.50690808 15.6695235 -3.50690808 15.6695235 -6.203125 17.4765625 C-6.79609375 17.64929688 -7.3890625 17.82203125 -8 18 C-7.67 17.34 -7.34 16.68 -7 16 C-6.93049459 14.45976004 -6.91547643 12.91665012 -6.9375 11.375 C-6.94652344 10.55773437 -6.95554687 9.74046875 -6.96484375 8.8984375 C-6.97644531 8.27195312 -6.98804688 7.64546875 -7 7 C-5.515 7.99 -5.515 7.99 -4 9 C-2.68 6.03 -1.36 3.06 0 0 Z " fill="#287ECB" transform="translate(426,497)"/>
<path d="M0 0 C2.1519437 3.22791555 2.20086443 4.28400809 2 8 C1.71125 7.38125 1.4225 6.7625 1.125 6.125 C0.06279958 3.86674235 0.06279958 3.86674235 -2 2 C-4.55460214 1.92727438 -4.55460214 1.92727438 -7 3 C-8.37466625 5.47636012 -8.37466625 5.47636012 -9 8 C-9.33 8 -9.66 8 -10 8 C-10.25 5.1875 -10.25 5.1875 -10 2 C-6.96457461 -1.61916104 -4.32701626 -1.31691799 0 0 Z " fill="#267BCB" transform="translate(440,522)"/>
<path d="M0 0 C4 0 4 0 7 1 C6.360625 1.309375 5.72125 1.61875 5.0625 1.9375 C1.90231425 5.09768575 2.18099207 8.68333908 2 13 C1.34 13 0.68 13 0 13 C0 8.71 0 4.42 0 0 Z " fill="#3389D0" transform="translate(399,497)"/>
<path d="M0 0 C1.4540625 0.0309375 1.4540625 0.0309375 2.9375 0.0625 C2.6075 1.7125 2.2775 3.3625 1.9375 5.0625 C0.2875 5.0625 -1.3625 5.0625 -3.0625 5.0625 C-3.625 3.125 -3.625 3.125 -4.0625 1.0625 C-3.0625 0.0625 -3.0625 0.0625 0 0 Z " fill="#EFF6FB" transform="translate(335.0625,527.9375)"/>
<path d="M0 0 C1.65 0 3.3 0 5 0 C5.66 1.32 6.32 2.64 7 4 C4.03 4 1.06 4 -2 4 C-1.34 2.68 -0.68 1.36 0 0 Z " fill="#F5FAFC" transform="translate(362,523)"/>
<path d="M0 0 C0.66 1.32 1.32 2.64 2 4 C-1.68717438 6.45811625 -3.64345704 6.31118164 -8 6 C-8.99 5.34 -9.98 4.68 -11 4 C-11 3.34 -11 2.68 -11 2 C-10.01 2.33 -9.02 2.66 -8 3 C-5.66700175 3.03954234 -3.33291811 3.04401732 -1 3 C-0.67 2.01 -0.34 1.02 0 0 Z " fill="#3588CF" transform="translate(380,504)"/>
<path d="M0 0 C2.64 0 5.28 0 8 0 C8 0.99 8 1.98 8 3 C7 4 7 4 4.4375 4.0625 C3.2309375 4.0315625 3.2309375 4.0315625 2 4 C1.34 2.68 0.68 1.36 0 0 Z " fill="#F3F9FB" transform="translate(360,529)"/>
<path d="M0 0 C0.33 0.99 0.66 1.98 1 3 C0.34 3.66 -0.32 4.32 -1 5 C-1.33 4.01 -1.66 3.02 -2 2 C-4.31 2 -6.62 2 -9 2 C-9 1.34 -9 0.68 -9 0 C-5.52176885 -1.15941038 -3.54104422 -0.70820884 0 0 Z " fill="#4594D4" transform="translate(339,522)"/>
<path d="M0 0 C1.485 0.99 1.485 0.99 3 2 C6.12521833 2.16699232 6.12521833 2.16699232 9 2 C9.33 2.66 9.66 3.32 10 4 C3.375 5.25 3.375 5.25 0 3 C0 2.01 0 1.02 0 0 Z " fill="#3084CE" transform="translate(385,505)"/>
<path d="M0 0 C0.33 0.66 0.66 1.32 1 2 C-0.98567708 1.96744792 -2.97135417 1.93489583 -4.95703125 1.90234375 C-7.20305461 1.91736783 -7.20305461 1.91736783 -10 3 C-9.67 2.01 -9.34 1.02 -9 0 C-5.88173308 -1.55913346 -3.32926126 -0.66585225 0 0 Z " fill="#2B81CD" transform="translate(380,493)"/>
<path d="M0 0 C0.33 0 0.66 0 1 0 C1.49230769 7.26153846 1.49230769 7.26153846 -1 11 C-1.66 11.66 -2.32 12.32 -3 13 C-2.343621 8.51474352 -1.29925791 4.33085971 0 0 Z " fill="#FDB680" transform="translate(204,450)"/>
<path d="M0 0 C3.63 0 7.26 0 11 0 C11 0.33 11 0.66 11 1 C7.37 1.66 3.74 2.32 0 3 C0 2.01 0 1.02 0 0 Z " fill="#ABCFF1" transform="translate(236,601)"/>
<path d="M0 0 C2.97 0.99 5.94 1.98 9 3 C9 3.33 9 3.66 9 4 C3.375 4.25 3.375 4.25 0 2 C0 1.34 0 0.68 0 0 Z " fill="#4F99D6" transform="translate(343,536)"/>
</svg>
