<svg width="15" height="15" viewBox="0 0 15 15" fill="none" xmlns="http://www.w3.org/2000/svg">
<path d="M7.335 14.67C6.32032 14.67 5.36678 14.4775 4.47435 14.0924C3.58192 13.7073 2.80564 13.1847 2.14549 12.5245C1.48534 11.8644 0.962719 11.0881 0.577631 10.1957C0.192544 9.30322 0 8.34967 0 7.335C0 6.32032 0.192544 5.36678 0.577631 4.47435C0.962719 3.58192 1.48534 2.80564 2.14549 2.14549C2.80564 1.48534 3.58192 0.962719 4.47435 0.577631C5.36678 0.192544 6.32032 0 7.335 0C8.34967 0 9.30322 0.192544 10.1957 0.577631C11.0881 0.962719 11.8644 1.48534 12.5245 2.14549C13.1847 2.80564 13.7073 3.58192 14.0924 4.47435C14.4775 5.36678 14.67 6.32032 14.67 7.335C14.67 8.34967 14.4775 9.30322 14.0924 10.1957C13.7073 11.0881 13.1847 11.8644 12.5245 12.5245C11.8644 13.1847 11.0881 13.7073 10.1957 14.0924C9.30322 14.4775 8.34967 14.67 7.335 14.67ZM8.0685 13.148C9.52327 12.9646 10.7427 12.3259 11.7268 11.2317C12.7109 10.1376 13.203 8.83867 13.203 7.335C13.203 5.83132 12.7109 4.53242 11.7268 3.43828C10.7427 2.34414 9.52327 1.70539 8.0685 1.52201V13.148Z" fill="#4A4A4A"/>
</svg>
