<svg width="15" height="15" viewBox="0 0 15 15" fill="none" xmlns="http://www.w3.org/2000/svg">
<path d="M7.40835 14.67C6.38145 14.67 5.41873 14.4744 4.52019 14.0832C3.62166 13.692 2.83926 13.1633 2.17299 12.497C1.50673 11.8307 0.978 11.0483 0.5868 10.1498C0.1956 9.25127 0 8.28855 0 7.26165C0 5.4768 0.568462 3.90283 1.70539 2.53974C2.84231 1.17666 4.29097 0.330075 6.05137 0C5.83132 1.21027 5.89856 2.39304 6.25309 3.54831C6.60761 4.70357 7.21886 5.71519 8.08684 6.58316C8.95481 7.45114 9.96643 8.06239 11.1217 8.41691C12.277 8.77144 13.4597 8.83867 14.67 8.61862C14.3521 10.379 13.5086 11.8277 12.1394 12.9646C10.7702 14.1015 9.1932 14.67 7.40835 14.67ZM7.40835 13.203C8.48415 13.203 9.48049 12.934 10.3974 12.3961C11.3142 11.8582 12.0355 11.1186 12.5612 10.1773C11.5098 10.0795 10.5135 9.81362 9.57218 9.37963C8.63085 8.94564 7.78732 8.35579 7.0416 7.61006C6.29587 6.86434 5.70296 6.02081 5.26286 5.07949C4.82276 4.13816 4.55992 3.14182 4.47435 2.09047C3.53302 2.61615 2.79647 3.34048 2.26468 4.26347C1.73289 5.18646 1.467 6.18585 1.467 7.26165C1.467 8.91202 2.04463 10.3148 3.19989 11.4701C4.35516 12.6254 5.75797 13.203 7.40835 13.203Z" fill="#4A4A4A"/>
</svg>
