<svg width="17" height="17" viewBox="0 0 17 17" fill="none" xmlns="http://www.w3.org/2000/svg">
<path d="M8.165 10.3918C8.78356 10.3918 9.30934 10.1753 9.74233 9.74233C10.1753 9.30934 10.3918 8.78356 10.3918 8.165C10.3918 7.54644 10.1753 7.02066 9.74233 6.58767C9.30934 6.15468 8.78356 5.93818 8.165 5.93818C7.54644 5.93818 7.02066 6.15468 6.58767 6.58767C6.15468 7.02066 5.93818 7.54644 5.93818 8.165C5.93818 8.78356 6.15468 9.30934 6.58767 9.74233C7.02066 10.1753 7.54644 10.3918 8.165 10.3918ZM8.165 11.8764C7.13819 11.8764 6.26293 11.5145 5.53921 10.7908C4.81549 10.0671 4.45364 9.19181 4.45364 8.165C4.45364 7.13819 4.81549 6.26293 5.53921 5.53921C6.26293 4.81549 7.13819 4.45364 8.165 4.45364C9.19181 4.45364 10.0671 4.81549 10.7908 5.53921C11.5145 6.26293 11.8764 7.13819 11.8764 8.165C11.8764 9.19181 11.5145 10.0671 10.7908 10.7908C10.0671 11.5145 9.19181 11.8764 8.165 11.8764ZM2.96909 8.90727H0V7.42273H2.96909V8.90727ZM16.33 8.90727H13.3609V7.42273H16.33V8.90727ZM7.42273 2.96909V0H8.90727V2.96909H7.42273ZM7.42273 16.33V13.3609H8.90727V16.33H7.42273ZM4.00827 5.01034L2.13403 3.21033L3.19177 2.11548L4.97323 3.97116L4.00827 5.01034ZM13.1382 14.2145L11.3382 12.3403L12.3217 11.3197L14.196 13.1197L13.1382 14.2145ZM11.3197 4.00827L13.1197 2.13403L14.2145 3.19177L12.3588 4.97323L11.3197 4.00827ZM2.11548 13.1382L3.98972 11.3382L5.01034 12.3217L3.21033 14.196L2.11548 13.1382Z" fill="#0087FA"/>
</svg>
