<svg width="16" height="16" viewBox="0 0 16 16" fill="none" xmlns="http://www.w3.org/2000/svg">
<path d="M7.11997 1.30967C7.60285 0.896776 8.39365 0.896776 8.88353 1.30967L9.98925 2.26143C10.1992 2.44339 10.5911 2.59035 10.871 2.59035H12.0607C12.8025 2.59035 13.4114 3.1992 13.4114 3.94101V5.13072C13.4114 5.40365 13.5584 5.80255 13.7403 6.0125L14.6921 7.11822C15.105 7.6011 15.105 8.3919 14.6921 8.88178L13.7403 9.9875C13.5584 10.1975 13.4114 10.5894 13.4114 10.8693V12.059C13.4114 12.8008 12.8025 13.4096 12.0607 13.4096H10.871C10.5981 13.4096 10.1992 13.5566 9.98925 13.7386L8.88353 14.6903C8.40065 15.1032 7.60985 15.1032 7.11997 14.6903L6.01425 13.7386C5.8043 13.5566 5.4124 13.4096 5.13247 13.4096H3.92177C3.17996 13.4096 2.57111 12.8008 2.57111 12.059V10.8623C2.57111 10.5894 2.42414 10.1975 2.24919 9.9875L1.30442 8.87478C0.898525 8.3919 0.898525 7.6081 1.30442 7.12522L2.24919 6.0125C2.42414 5.80255 2.57111 5.41065 2.57111 5.13772V3.93402C2.57111 3.1922 3.17996 2.58335 3.92177 2.58335H5.13247C5.4054 2.58335 5.8043 2.43639 6.01425 2.25444L7.11997 1.30967Z" stroke="black" stroke-linecap="round" stroke-linejoin="round"/>
<path d="M5.76954 8.71757L7.40331 10.155L10.325 6.83195" stroke="black" stroke-linecap="round" stroke-linejoin="round"/>
</svg>
